<?xml version="1.0" encoding="UTF-8"?>
<!-- Created with Inkscape (http://www.inkscape.org/) -->
<svg version="1.1" viewBox="0 0 1920 1080" xml:space="preserve" xmlns="http://www.w3.org/2000/svg" xmlns:xlink="http://www.w3.org/1999/xlink"><defs><filter id="filter8050" x="-.003" y="-.003" width="1.006" height="1.006" color-interpolation-filters="sRGB"><feGaussianBlur stdDeviation="0.0015728889"/></filter><radialGradient id="radialGradient8054" cx="3.5449" cy="2.6469" r="2.1472" gradientUnits="userSpaceOnUse" spreadMethod="repeat"><stop stop-color="#37c6fb" stop-opacity=".97615" offset=".66792"/><stop stop-color="#aafdff" offset="1"/></radialGradient><filter id="filter8054" x="-.056507" y="-.056507" width="1.113" height="1.113" color-interpolation-filters="sRGB"><feGaussianBlur stdDeviation="0.095305943"/></filter><filter id="filter8055" x="-.10669" y="-.10669" width="1.2134" height="1.2134" color-interpolation-filters="sRGB"><feGaussianBlur stdDeviation="0.055939729"/></filter></defs><path transform="matrix(22.196 0 0 22.196 -28.682 -8.7489)" d="m5.5638 3.4639c-0.012506 0.030904-1.1383 1.1753-1.169 1.1883-0.030696 0.013009-1.636 0.026113-1.6669 0.013607-0.030904-0.012506-1.1753-1.1383-1.1883-1.169-0.013009-0.030696-0.026113-1.636-0.013607-1.6669 0.012506-0.030904 1.1383-1.1753 1.169-1.1883 0.030696-0.013009 1.636-0.026113 1.6669-0.013607 0.030904 0.012506 1.1753 1.1383 1.1883 1.169 0.013009 0.030696 0.026113 1.636 0.013607 1.6669z" fill="url(#radialGradient8054)" filter="url(#filter8054)" opacity=".67397" style="mix-blend-mode:difference"/><path transform="matrix(67.148 0 0 67.148 37.672 33.738)" d="m0.80859 0.50391c-0.004006 0.009567-0.35852 0.36135-0.36812 0.36529-0.009598 0.003932-0.50903 0.002001-0.5186-0.002005-0.0095671-0.004006-0.36135-0.35852-0.36529-0.36812-0.003932-0.009598-0.002001-0.50903 0.002005-0.5186 0.004006-0.0095671 0.35852-0.36135 0.36812-0.36529 0.0095978-0.003932 0.50903-0.002001 0.5186 0.002005 0.009567 0.004006 0.36135 0.35852 0.36529 0.36812 0.003932 0.0095978 0.002001 0.50903-0.002005 0.5186z" fill="#212121" filter="url(#filter8050)" style="mix-blend-mode:normal"/><path transform="matrix(58.946 0 0 58.946 39.178 35.724)" d="m0.80859 0.50391c-0.004006 0.009567-0.35852 0.36135-0.36812 0.36529-0.009598 0.003932-0.50903 0.002001-0.5186-0.002005-0.0095671-0.004006-0.36135-0.35852-0.36529-0.36812-0.003932-0.009598-0.002001-0.50903 0.002005-0.5186 0.004006-0.0095671 0.35852-0.36135 0.36812-0.36529 0.0095978-0.003932 0.50903-0.002001 0.5186 0.002005 0.009567 0.004006 0.36135 0.35852 0.36529 0.36812 0.003932 0.0095978 0.002001 0.50903-0.002005 0.5186z" fill="#a80bbf" fill-opacity=".86" filter="url(#filter8055)" opacity=".83636" style="mix-blend-mode:difference"/><path transform="matrix(55.298 0 0 55.298 40.439 36.565)" d="m0.80859 0.50391c-0.004006 0.009567-0.35852 0.36135-0.36812 0.36529-0.009598 0.003932-0.50903 0.002001-0.5186-0.002005-0.0095671-0.004006-0.36135-0.35852-0.36529-0.36812-0.003932-0.009598-0.002001-0.50903 0.002005-0.5186 0.004006-0.0095671 0.35852-0.36135 0.36812-0.36529 0.0095978-0.003932 0.50903-0.002001 0.5186 0.002005 0.009567 0.004006 0.36135 0.35852 0.36529 0.36812 0.003932 0.0095978 0.002001 0.50903-0.002005 0.5186z" fill="#212121" filter="url(#filter8050)" style="mix-blend-mode:normal"/><g fill-opacity=".86" stroke="#000" stroke-width=".86859"><rect x="40.642" y="54.06" width=".63149" height="9.7807"/><rect x="47.272" y="34.394" width=".63149" height="9.7807"/><rect x="56.807" y="36.231" width=".63149" height="9.7807"/><rect transform="rotate(-90)" x="-43.331" y="37.032" width=".63149" height="9.7807"/></g><g><path transform="matrix(.013422 0 0 .013422 3.302 3.091)" d="m2102.2-188.62c36.344 33.61 48.692 68.978 54.586 117.94 0.4708 49.904-21.45 87.583-53.953 123.94-14.725 12.339-30.628 19.572-47.859 27.937 0.013 3.6478 0.027 7.2957 0.041 11.054 0.1688 48.815 0.2729 97.63 0.3347 146.45 0 4.028 0.012 8.056 0.015 12.206 0.1695 151.2-1.2771 302.36-3.3906 453.54-0.108 7.7015-0.108 7.7015-0.2174 15.558-0.8851 63.064-1.8166 126.13-2.7826 189.19 29.7-1.98 59.4-3.96 90-6-0.1515-16.93-0.1515-16.93-0.3061-34.203-0.272-37.528-0.2919-75.05-0.1448-112.58 0.081-22.729 0.062-45.448-0.1863-68.176-0.2372-21.985-0.2065-43.956 8e-4 -65.941 0.033-8.3356-0.025-16.672-0.1841-25.006-1.0036-57.073 8.3109-88.956 47.571-131.05 4.3724-4.3034 8.7447-8.6069 13.25-13.041 3.1154-3.3347 6.231-6.6694 9.4408-10.105 6.7642-7.2132 13.83-14.141 20.934-21.02 6.7869-6.6245 6.7869-6.6245 13.711-13.383 3.2716-3.1324 6.5432-6.2648 9.914-9.4922-10.904-23.229-25.125-43.244-39.961-64.101-20.173-34.877-19.616-81.319-10.148-119.65 16.788-47.065 46.767-82.191 92.109-104.25 44.926-13.831 95.509-11.865 137.39 9.6094 38.779 25.804 71.332 59.502 81.586 105.84 7.452 49.32-2.875 91.316-31.102 132.42-24.183 29.792-54.185 50.168-91.875 58.125-0.5264 3.4645-1.0528 6.929-1.5952 10.499-5.6094 17.194-13.919 24.975-26.881 37.525-4.5284 4.4434-9.057 8.8868-13.723 13.465-4.7605 4.5826-9.5209 9.1652-14.426 13.887-9.38 9.1196-18.748 18.252-28.102 27.398-4.1721 4.0262-8.3444 8.0524-12.643 12.201-25.129 26.064-24.651 48.381-25.114 82.744-0.1164 5.3545-0.2325 10.709-0.3522 16.226-0.3587 17.185-0.636 34.369-0.9135 51.555-0.2294 11.297-0.4637 22.594-0.7032 33.891-1.2608 62.212-1.7843 124.38-1.5468 186.61 29.7 1.98 59.4 3.96 90 6-0.2088-13.442-0.4177-26.885-0.6328-40.734-0.1407-13.106-0.2498-26.213-0.356-39.319-0.09-9.0667-0.2127-18.133-0.3691-27.199-0.2198-13.078-0.3209-26.152-0.3999-39.231-0.095-7.8552-0.1886-15.71-0.2856-23.804 2.7817-29.556 10.914-49.851 33.543-69.337 22.259-8.6 35.62-6.615 58.5-0.37499 18.954 14.465 25.96 24.916 30 48 0.4933 14.337 0.6448 28.686 0.586 43.031-0.013 6.1418-0.013 6.1418-0.027 12.408-0.033 13.021-0.1092 26.041-0.1851 39.061-0.03 8.8515-0.058 17.703-0.082 26.555-0.061 21.649-0.1783 43.296-0.2929 64.945h90c0.084-9.3537 0.084-9.3537 0.1699-18.896 0.2395-23.172 0.6342-46.338 1.0752-69.507 0.1692-10.021 0.2965-20.042 0.3809-30.064 0.1287-14.421 0.4086-28.833 0.7178-43.251 0.012-4.4696 0.015-8.9392 0.023-13.544 0.5899-20.955 1.9876-32.612 14.995-49.403 15.373-11.353 23.45-14.888 42.638-15.334 22.41 6.9549 37.407 12.205 52.156 30.813 9.8151 21.505 10.117 40.282 9.6022 63.429-0.025 4.3524-0.051 8.7047-0.077 13.189-0.1008 13.817-0.3261 27.628-0.5557 41.444-0.09 9.4022-0.1724 18.804-0.2461 28.207-0.1824 22.976-0.5349 45.941-0.8789 68.918 29.7-1.98 59.4-3.96 90-6v-492c-13.86-1.98-27.72-3.96-42-6-38.104-17.381-65.869-41.823-84.843-79.64-13.664-43.353-12.055-97.777 6.4687-139.36 21.265-36.246 52.516-59.07 89.625-77.625 57.76-10.397 101.14-3.6387 150.37 28.125 35.307 26.785 56.164 62.548 63.258 106.27 2.0826 43.791-7.6566 78.295-32.883 114.23-7.6134 6.2555-7.6134 6.2555-15.38 12.637-19.02 22.588-18.663 40.488-18.025 68.686-0.012 7.6436-0.012 7.6436-0.012 15.442 0.018 16.788 0.2538 33.566 0.4896 50.352 0.054 11.66 0.098 23.321 0.1284 34.981 0.114 30.649 0.4092 61.293 0.7411 91.94 0.3072 31.29 0.444 62.58 0.5952 93.871 0.3216 61.365 0.8492 122.73 1.4649 184.09h102c-0.2784-13.009-0.5568-26.018-0.8439-39.422-0.1872-12.689-0.333-25.379-0.4746-38.068-0.12-8.776-0.2838-17.552-0.492-26.326-0.2934-12.661-0.4278-25.316-0.5334-37.98-0.1254-7.6038-0.2514-15.208-0.381-23.042 3.8392-29.817 16.738-48.385 39.1-68.036 21.844-13.388 40.111-13.933 65.15-14.092 7.3109-0.06 14.622-0.1152 22.154-0.1746 7.9123-0.024 15.825-0.048 23.977-0.0774 8.214-0.036 16.428-0.069 24.642-0.1038 17.229-0.063 34.458-0.0978 51.688-0.1188 21.997-0.03 43.992-0.177 65.988-0.348 16.977-0.1122 33.953-0.1428 50.93-0.1524 12.027-0.024 24.054-0.1386 36.081-0.252 82.466 0.201 82.466 0.201 116.89 33.693 19.462 31.715 23.628 63.562 23.678 100.24 0.03 5.9061 0.03 5.9061 0.063 11.932 0.054 12.874 0.018 25.746-0.024 38.62 0 9.0156 0.018 18.031 0.036 27.047 0.018 18.831-0.012 37.662-0.063 56.493-0.069 24.096-0.03 48.19 0.042 72.285 0.042 18.592 0.03 37.184 0 55.776-0.012 8.8843 0 17.768 0.03 26.653 0.03 12.42-0.018 24.836-0.083 37.256-0.012 10.582-0.012 10.582-0.03 21.378-2.1775 26.886-8.1148 43.096-26.649 62.689-22.064 13.238-33.526 14.572-58.875 10.125-22.199-15.234-34.598-30.176-40.92-56.436-0.2442-11.498-0.2442-11.498-0.4938-23.228-0.1854-6.5027-0.1854-6.5027-0.375-13.137-0.3222-15.075-0.3054-30.121-0.2112-45.199 0.024-5.7616 0.048-11.523 0.077-17.46 0.3222-45.322 1.392-90.607 2.5478-135.91 1.1137-46.406 2.2275-92.812 3.375-140.62h-282v126c35.898-0.70809 35.898-0.70809 71.792-1.6215 30.655-0.3036 51.758 2.3699 78.208 19.622 29.455 32.64 30.835 54.138 30.586 96.984-0.012 5.4433-0.018 10.886-0.024 16.495-0.036 17.424-0.1092 34.847-0.1854 52.271-0.03 11.797-0.06 23.594-0.081 35.39-0.066 28.953-0.1698 57.906-0.2928 86.859 5.2824-0.018 10.565-0.036 16.008-0.054 6.9686-0.012 13.937-0.03 21.117-0.042 6.8911-0.018 13.782-0.036 20.883-0.054 65.215 0.4776 65.215 0.4776 91.992 17.771 15.586 16.074 17.696 21.695 20.25 44.25-2.25 22.125-2.25 22.125-12.961 38.391-29.021 20.664-55.496 16.986-90.164 15.609-6.4467-0.1356-12.893-0.2706-19.535-0.4104-15.867-0.3528-31.729-0.8907-47.59-1.4649 1.98 41.58 3.96 83.16 6 126 14.231 0.3714 28.462 0.7424 43.125 1.125 4.4255 0.1638 8.8509 0.3276 13.411 0.4968 32.624 0.4098 50.172-7.554 73.894-29.09 3.117-3.3102 6.2339-6.6204 9.4453-10.031 13.957-14.498 28.23-28.063 43.547-41.109 31.03-26.983 60.575-55.378 89.953-84.14 5.5571-5.2825 11.114-10.565 16.84-16.008 5.2168-5.128 10.434-10.256 15.809-15.539 4.7531-4.603 9.5065-9.2059 14.404-13.948 11.321-13.128 11.321-13.128 8.1738-29.45-1.5183-4.7205-3.0367-9.4408-4.601-14.304-5.0293-50.795 0.1854-89.762 30-132 29.748-34.153 63.837-51.016 108.49-56.109 45.248-2.0017 78.029 3.124 113.51 32.109 31.527 30.163 56.681 57.343 62.226 101.88 1.1091 53.567-7.4057 91.573-43.008 132.52-34.702 33.245-71.793 48.227-119.72 49.101-15.666-0.3792-26.233-1.7445-41.25-6.75-18.098-0.9525-21.619 3.5339-35.25 15-28.037 26.053-54.546 53.803-81.535 80.938-15.98 16.06-31.976 32.105-47.973 48.149-8.4486 8.479-16.892 16.964-25.33 25.453-12.209 12.281-24.437 24.544-36.669 36.803-5.6718 5.7183-5.6718 5.7183-11.458 11.552-5.259 5.2595-5.259 5.2595-10.624 10.626-3.0806 3.0939-6.1612 6.1877-9.335 9.3754-17.809 16.218-33.38 14.048-56.684 13.939-7.2703-0.018-14.541-0.036-22.031-0.06-11.439-0.075-11.439-0.075-23.109-0.1524-7.6724-0.03-15.345-0.054-23.25-0.083-19-0.071-38-0.1788-57-0.2928v132c13.512-0.2088 27.024-0.4176 40.945-0.6327 13.146-0.1404 26.292-0.2496 39.438-0.3558 9.1077-0.09 18.215-0.213 27.322-0.369 13.122-0.2196 26.241-0.3204 39.365-0.4002 7.8865-0.094 15.773-0.1884 23.899-0.2856 22.271 2.1639 33.322 6.7156 51.031 20.043 15.394 20.526 14.622 41.086 12 66-10.774 16.52-18.315 27.158-36 36-14.886 0.519-29.601 0.694-44.484 0.5862-4.3778-0.012-8.7557-0.018-13.266-0.024-14-0.036-27.999-0.1092-41.999-0.1854-9.4844-0.03-18.969-0.06-28.453-0.081-23.266-0.061-46.531-0.1788-69.797-0.2928v132c41.861 0.108 83.682 0.086 125.54-0.2562 14.222-0.078 28.445-0.083 42.668-0.012 20.5 0.091 40.984-0.088 61.482-0.318 6.3143 0.086 12.629 0.171 19.134 0.2592 39.938-0.7781 60.808-8.1267 88.989-36.845 3.3623-3.5731 6.7246-7.1466 10.189-10.828 7.2988-6.3386 14.664-12.603 22.125-18.75 17.502-15.024 33.93-30.546 49.875-47.25 4.6405-4.6714 9.281-9.343 14.062-14.156 5.0119-5.2284 10.024-10.457 15.188-15.844 4.8106-4.95 9.6214-9.8999 14.578-15 11.824-14.033 11.824-14.033 8.8593-29.742-2.3202-7.5526-2.3202-7.5526-4.6874-15.258-5.0254-50.756 0.1458-89.813 30-132 27.938-31.389 59.987-51.167 101.88-56.109 53.122-2.3665 92.357 7.4982 132.52 43.101 33.233 35.176 47.959 69.084 50.602 117.26-1.3069 40.967-15.516 74.476-43.078 104.86-22.357 20.171-48.92 42.631-80.239 43.059-9.15-0.7876-18.295-1.6397-27.434-2.5474-45.129-4.478-45.129-4.478-86.951 9.955-19.232 16.017-35.212 34.064-51.07 53.361-4.6947 5.6306-9.3895 11.261-14.226 17.062h-12l-6 18c-9.1875 9.0469-9.1875 9.0469-21 18.75-24.655 20.828-47.206 43.204-69.703 66.328-18.859 18.233-30.978 17.658-56.604 17.603-6.9664-4e-4 -13.933 0-21.11 0-7.5501-0.03-15.1-0.061-22.879-0.094-7.7072 0-15.414-0.018-23.355-0.024-20.497-0.024-40.994-0.081-61.491-0.1482-20.913-0.061-41.826-0.089-62.739-0.1188-41.039-0.065-82.078-0.1698-123.12-0.2928v132c46.538 0.6289 93.056 0.859 139.6 0.7324 15.805 0.012 31.61 0.129 47.414 0.3576 89.868 6.5628 89.868 6.5628 171.77-20.768 10.909-10.735 21.591-21.708 31.992-32.936 36.922-28.7 88.188-19.407 132.72-17.136 10.366 0.3018 20.734 0.5754 31.102 0.8203 25.154 0.6546 50.267 1.6858 75.398 2.9297 2.7148-7.0356 2.7148-7.0356 5.4844-14.213 15.056-36.478 41.408-62.864 77.39-78.786 48.313-16.372 90.689-13.795 137.18 7.0781 36.066 20.488 60.768 49.849 75.984 88.382 10.064 39.48 11.398 82.746-6.164 120.16-4.4084 7.2609-9.0273 14.4-13.875 21.375-4.2074 6.3111-8.4148 12.622-12.75 19.125-27.051 30.463-71.475 50.995-112.08 53.625-49.205-2.8017-88.422-15.277-123.82-50.086-27.352-31.19-27.352-31.19-27.352-52.664-25.181-0.6345-50.326-0.8583-75.512-0.7325-8.5302-0.012-17.061-0.1272-25.588-0.3576-12.41-0.315-24.769-0.231-37.18-0.081-7.4153-0.063-14.831-0.1254-22.471-0.1902-25.852 3.8747-40.384 20.262-58.705 37.444-39.854 36.281-74.524 37.868-126.95 35.777-8.2371-0.1116-16.475-0.1974-24.712-0.2574-21.435-0.2267-42.845-0.8134-64.27-1.4821-21.96-0.6196-43.925-0.8891-65.892-1.1903-42.917-0.6389-85.814-1.6919-128.72-2.9297v132c18.791-0.5184 18.791-0.5184 37.963-1.0473 41.642-1.0994 83.284-1.8249 124.94-2.3723 25.228-0.3426 50.442-0.8068 75.661-1.5594 24.394-0.7234 48.774-1.113 73.177-1.2829 9.2538-0.1212 18.507-0.357 27.755-0.7163 45.961-1.713 82.116-0.9468 117.87 31.042 9.0302 8.9764 17.552 18.256 26.06 27.725 14.042 17.004 14.042 17.004 38.57 14.211 10.151-7.8081 20.142-15.825 30-24 38.643-19.186 87.082-18.893 128.46-8.2969 39.835 17.898 71.691 51.143 93.164 88.547 14.296 48.775 17.253 89.324-5.625 135.75-25.223 44.643-59.824 67.941-108 84-56.351 4.0086-97.174 0.6519-145.12-30.375-28.632-25.972-45.752-62.333-48.55-100.45-3.8944-31.308-17.654-48.674-41.288-69.409-60.336-43.302-153.33-30.293-224.4-29.079-22.648 0.3156-45.295 0.252-67.945 0.2232-44.239 0-88.456 0.444-132.69 1.0899v132c14.378-0.2784 28.756-0.5568 43.57-0.8439 13.98-0.1872 27.959-0.333 41.94-0.4746 9.69-0.1206 19.38-0.2838 29.068-0.492 13.957-0.2922 27.908-0.4278 41.867-0.5334 4.3074-0.1236 8.6148-0.2478 13.053-0.3756 21.603-0.012 33.629 2.1725 52.099 13.741 16.19 16.941 18.131 28.04 20.278 51.228-2.1819 25.31-8.1681 34.043-25.875 51.75-18.396 9.1978-37.627 6.7278-57.797 6.586-4.511-0.012-9.0219-0.018-13.67-0.024-14.428-0.036-28.856-0.1092-43.283-0.1854-9.7734-0.03-19.547-0.06-29.32-0.082-23.977-0.061-47.952-0.1788-71.929-0.2928v126c20.388-0.7657 40.775-1.5313 61.781-2.3203 19.957-0.516 39.914-0.916 59.874-1.3051 13.771-0.33 27.54-0.7791 41.302-1.3535 126.82-5.1576 126.82-5.1576 165.89 27.474 13.704 13.597 25.533 28.106 37.154 43.505 22.008 26.156 22.008 26.156 48 48 21.393-1.9189 21.393-1.9189 34.851-7.5235 37.078-12.624 75.429-8.3733 110.65 7.5235 40.286 22.737 71.929 56.106 85.851 100.85 9.2252 45.799 5.8201 84.024-17.274 124.99-27.57 38.726-64.46 71.111-112.08 80.156-46.417 5.1987-84.501-0.6063-122.34-28.617-34.648-29.228-58.388-57.028-63.656-103.38-2.1064-56.142-2.1064-56.142 6-84-4.9888-4.5556-9.9774-9.1111-15.117-13.805-6.5861-6.0232-13.172-12.047-19.758-18.07-3.2833-2.9971-6.5665-5.9941-9.9493-9.0821-26.443-24.2-26.443-24.2-35.731-34.893-11.986-10.342-18.391-10.503-34.07-10.744-4.9237-0.1188-9.8475-0.2376-14.92-0.36-5.2881-0.036-10.576-0.077-16.024-0.1164-5.4348-0.108-10.87-0.2154-16.469-0.3264-17.362-0.3252-34.722-0.528-52.086-0.7282-11.77-0.1992-23.539-0.4056-35.308-0.6212-28.855-0.51-57.709-0.9106-86.566-1.2538 0.1254 7.5956 0.2514 15.191 0.381 23.017 0.4356 28.301 0.7104 56.602 0.9374 84.905 0.1206 12.227 0.2838 24.454 0.492 36.68 0.2927 17.62 0.4277 35.236 0.5333 52.859 0.1236 5.4265 0.2478 10.853 0.3756 16.444 0.012 35.922-5.6707 56.729-26.719 86.094-36.321 28.754-64.473 30.888-109.5 30.375-15.345-0.1236-30.69-0.2472-46.5-0.375v156h282c-0.348-23.474-0.6961-46.948-1.0548-71.132-0.234-22.737-0.4164-45.473-0.5934-68.21-0.1506-15.801-0.3558-31.602-0.6153-47.402-0.3642-22.713-0.534-45.421-0.6664-68.137-0.1548-7.0635-0.3096-14.127-0.4692-21.404-0.018-54.639-0.018-54.639 17.726-73.171 20.762-13.964 32.46-14.512 56.735-13.096 19.547 3.8599 29.844 11.824 42.937 26.555 6.7199 19.459 6.8296 38.087 6.9669 58.554 0.06 6.9501 0.1152 13.9 0.1746 21.061 0.024 7.4876 0.048 14.975 0.078 22.69 0.036 7.7238 0.069 15.448 0.1032 23.406 0.063 16.346 0.097 32.692 0.1188 49.038 0.03 20.86 0.177 41.718 0.348 62.578 0.1392 19.993 0.1506 39.985 0.1794 59.978 0.073 7.4512 0.1482 14.902 0.2244 22.579-0.108 42.121-0.2994 77.539-29.404 110.57-28.191 20.909-40.94 26.309-75.931 26.609-7.8112 0.077-15.622 0.1541-23.67 0.2333-8.5729 0.048-17.146 0.094-25.719 0.1344-4.313 0.024-8.6258 0.048-13.07 0.075-22.839 0.1254-45.677 0.2112-68.516 0.267-23.552 0.066-47.101 0.2724-70.652 0.5112-18.14 0.1572-36.278 0.207-54.418 0.2286-8.6786 0.03-17.357 0.098-26.035 0.21-12.176 0.1464-24.353 0.126-36.529 0.098-6.9187 0.036-13.838 0.069-20.966 0.1068-28.326-4.299-46.87-18.053-66.34-38.591-8.3184-14.782-9.4896-24.795-10.012-41.702-0.213-5.6959-0.4266-11.392-0.6461-17.26-0.135-6.0218-0.27-12.044-0.4086-18.248-0.2004-6.1416-0.4014-12.283-0.6079-18.611-1.4568-48.188-1.764-96.31-1.2671-144.51h-96c-0.9745 71.141-1.7202 142.28-2.1762 213.43-0.219 33.039-0.5154 66.074-0.9922 99.11-0.4572 31.901-0.7079 63.798-0.8165 95.702-0.077 12.152-0.2286 24.305-0.456 36.455-4.7007 73.794-4.7007 73.794 24.97 137.92 7.081 5.885 14.229 11.692 21.47 17.379 21.748 36.48 22.12 72.626 18 114-7.125 22.875-7.125 22.875-18 42-1.7634 3.4959-3.5268 6.992-5.3436 10.594-23.627 40.553-67.546 59.029-111.23 71.601-45.396 7.5122-87.919-6.6058-125.3-32.32-29.295-23.78-51.173-54.378-58.125-91.875-4.5872-56.811 4.4901-101.19 39.351-146.77 28.547-30.481 56.721-33.993 98.648-39.234v-528h-90c0.1571 6.9 0.3143 13.8 0.4762 20.909 0.5446 25.695 0.888 51.39 1.1719 77.089 0.1505 11.104 0.355 22.208 0.6153 33.31 0.3655 15.998 0.5343 31.987 0.6664 47.988 0.2322 7.3991 0.2322 7.3991 0.4692 14.947 0.012 25.119-1.734 40.906-17.822 60.807-18.457 17.712-26.982 21.356-51.577 22.8-22.454-3.4645-32.739-15.474-48-31.851-7.7693-23.308-6.7395-45.353-6.5859-69.633 0.012-7.5528 0.012-7.5528 0.025-15.258 0.033-16.078 0.1092-32.156 0.1852-48.234 0.03-10.902 0.057-21.805 0.081-32.707 0.066-26.723 0.1698-53.445 0.293-80.168h-90c0.094 6.7497 0.1885 13.499 0.2856 20.454 0.3264 25.103 0.5327 50.206 0.7032 75.31 0.09 10.854 0.2131 21.708 0.3691 32.56 0.2189 15.624 0.3205 31.245 0.3999 46.87 0.092 4.8324 0.1858 9.6647 0.2815 14.644 0.012 27.795-2.2007 45.486-20.039 68.161-17.204 13.949-25.739 18.089-48 17.625-20.55-6.422-32.407-14.924-48-29.625-9.9946-19.989-6.7204-42.392-6.5859-64.359 0.012-7.7654 0.012-7.7654 0.025-15.688 0.034-16.568 0.1092-33.135 0.1854-49.703 0.03-11.219 0.057-22.438 0.081-33.656 0.066-27.531 0.1699-55.062 0.293-82.593h-90c-1.6722 48.213-2.8588 96.368-3.249 144.61-0.1993 22.414-0.591 44.785-1.462 67.183-6.9563 110.1-6.9563 110.1 34.998 207.68 22.197 23.45 46.213 43.766 72.591 62.367 11.122 10.166 11.122 10.166 17.291 25.873 1.9242 4.7166 3.8484 9.4332 5.8309 14.293 11.472 4.3514 22.974 8.6481 34.64 12.445 38.622 16.059 64.265 46.877 81.211 84.187 16.73 45.842 12.172 87.466-7.8516 131.37-24.915 43.233-57.128 66.484-102.37 85.875-46.041 10.776-86.245 1.9039-126.68-21.398-35.041-24.219-57.47-54.05-70.945-94.476-4.9981-54.907-1.745-97.956 30-144 13.875-15.75 13.875-15.75 24-24-8.2157-19.553-16.082-28.228-33.855-39.539-38.234-27.862-68.32-55.937-79.57-103.31-8.4798-60.736-5.705-122.89-3.9474-184 0.6263-25.422 0.6968-50.846 0.8185-76.274 0.3173-49.645 1.2888-99.244 2.5547-148.87h-90v828l30 12c44.62 32.782 67.817 71.442 78 126 2.7551 46.207-15.668 89.84-45.211 124.94-33.891 31.808-76.733 50.021-123.16 51.679-45.085-2.1906-82.903-14.72-116.2-45.773-35.081-40.404-48.966-83.686-45.422-136.85 12.297-51.812 35.5-88.125 78-120 7.9308-4.1353 15.918-8.168 24-12 1.0554-190.9-0.8214-381.74-3-572.62-0.072-6.2876-0.1435-12.575-0.2174-19.053-0.9013-78.774-1.8298-157.55-2.7827-236.32h-84c0.2828 12.377 0.5656 24.755 0.857 37.507 0.8989 41.116 1.4928 82.233 1.9408 123.36 0.2807 24.91 0.6605 49.81 1.2759 74.714 0.5913 24.082 0.9105 48.155 1.0496 72.244 0.098 9.1407 0.2923 18.281 0.5861 27.418 1.4834 48.094-0.3977 83.795-31.889 122.68-9.0646 9.5616-18.318 18.952-27.82 28.078-6.1355 6.521-12.269 13.044-18.398 19.57-7.4134 7.2045-7.4134 7.2045-14.976 14.555-5.0815 4.9731-10.163 9.9463-15.398 15.07-3.7047 3.5655-7.4095 7.131-11.227 10.805 3.1866 2.3358 6.3731 4.6714 9.6563 7.078 39.033 30.913 58.344 61.914 64.383 111.75 1.7816 51.452-10.003 91.541-45.304 129.54-36.684 32.919-75.637 46.872-124.73 45.633-52.781-4.2085-87.306-30.841-122.25-69-25.938-32.211-31.315-64.228-27.75-105 6.9883-51.452 26.753-84.909 66.726-118.15 11.278-7.8546 21.714-12.735 34.523-17.601 6.1877-2.7226 12.375-5.445 18.75-8.25 0.8586-3.5965 1.7171-7.193 2.6016-10.898 4.7578-18.342 14.838-26.07 28.523-38.976 17.534-16.864 34.061-33.698 49.5-52.5 5.0737-5.8162 10.148-11.632 15.375-17.625h12c6.5577-19.673 6.9471-34.577 7.2319-55.293 0.12-7.6866 0.2394-15.373 0.3627-23.293 0.102-8.3905 0.2031-16.781 0.3038-25.172 0.1234-8.5836 0.2494-17.167 0.3778-25.751 0.331-22.578 0.6276-45.156 0.9171-67.735 0.3015-23.045 0.6355-46.09 0.9669-69.135 0.645-45.206 1.2507-90.413 1.8398-135.62h-96c0.1571 6.9 0.3142 13.8 0.4761 20.909 0.5447 25.695 0.888 51.39 1.1719 77.089 0.1505 11.104 0.355 22.208 0.6152 33.31 0.3656 15.998 0.5345 31.987 0.6665 47.988 0.2323 7.3991 0.2323 7.3991 0.4692 14.947 0.012 24.896-1.7072 40.918-17.48 60.776-18.467 17.378-26.689 21.494-51.918 20.98-18.101-6.6138-31.266-11.65-42.958-27.334-7.7575-22.565-6.5076-44.512-6.2138-68.197 0.025-7.7399 0.025-7.7399 0.051-15.636 0.067-16.445 0.2176-32.888 0.3704-49.332 0.06-11.164 0.1152-22.328 0.1641-33.492 0.1321-27.336 0.3392-54.672 0.5859-82.008h-96c0.1572 6.9 0.3144 13.8 0.4758 20.909 0.5448 25.695 0.888 51.39 1.1719 77.089 0.1506 11.104 0.3552 22.208 0.6152 33.31 0.3654 15.998 0.5346 31.987 0.6666 47.988 0.2322 7.3991 0.2322 7.3991 0.4692 14.947 0.012 24.772-1.6908 40.923-17.293 60.753-20.152 18.772-30.685 21.965-58.106 21.003-32.81-17.62-32.81-17.62-42-36-0.5226-17.938-0.693-35.735-0.5862-53.672 0.012-7.9651 0.012-7.9651 0.024-16.091 0.036-16.996 0.1092-33.991 0.1854-50.987 0.03-11.508 0.06-23.016 0.081-34.523 0.066-28.242 0.1698-56.484 0.2928-84.726h-90v522c17.82 3.96 35.64 7.92 54 12 37.569 15.659 63.871 42.966 84 78 12.882 36.682 12.508 86.25 1.4766 123.12-5.7291 11.75-11.969 22.195-19.476 32.883-3.465 5.3212-6.93 10.642-10.5 16.125-33.484 34.414-74.461 55.382-122.84 56.062-49.712-3.4107-87.766-23.987-121.41-60.398-30.162-38.409-37.5-75.963-36.024-124.41 4.6124-32.325 17.156-65.578 42.15-87.682 15.335-17.267 10.935-40.959 10.659-62.966v-16.5c-0.012-18.019-0.1524-36.035-0.2934-54.054-0.036-12.485-0.06-24.969-0.077-37.454-0.069-32.877-0.2454-65.752-0.4446-98.629-0.1842-33.541-0.2664-67.082-0.357-100.62-0.1932-65.825-0.5004-131.65-0.8789-197.47h-96c0.2784 14.602 0.5568 29.205 0.84377 44.25 0.1878 14.278 0.333 28.556 0.4746 42.835 0.12 9.858 0.2832 19.716 0.492 29.572 0.294 14.24 0.4278 28.475 0.5334 42.718 0.1236 4.3456 0.2478 8.6914 0.3756 13.169 0.012 32.041-6.827 59.715-26.719 85.456-23.475 18.005-41.163 20.27-70.383 20.329-3.9356 0.03-7.8712 0.062-11.926 0.095-12.94 0.079-25.876 0.024-38.816-0.036-9.0327 0.012-18.065 0.03-27.098 0.054-18.903 0.024-37.805-0.012-56.708-0.096-24.191-0.102-48.378-0.042-72.569 0.063-18.644 0.066-37.287 0.042-55.931 0-8.9178-0.012-17.836 0-26.753 0.042-12.479 0.048-24.953-0.024-37.432-0.1242-10.636-0.024-10.636-0.024-21.488-0.042-21.053-2.5467-32.073-7.5624-48.895-20.286-29.576-42.533-27.627-85.293-27.398-135.63-0.03-8.469-0.0696-16.938-0.1128-25.407-0.0624-17.666-0.036-35.33 0.054-52.996 0.1032-22.598-0.036-45.188-0.249-67.785-0.132-17.455-0.123-34.908-0.0732-52.364 0-8.3318-0.036-16.664-0.1248-24.995-0.1044-11.642 0-23.284 0.1188-34.926 0-6.6104 0.012-13.221 0.018-20.031 4.9878-23.638 15.458-32.648 33.769-47.863 21.658-9.119 29.595-6.1442 52.125 1.875 19.875 10.125 19.875 10.125 31.875 22.125 1.6708 13.971 1.6708 13.971 1.913 31.655 0.1788 9.9088 0.1788 9.9088 0.3612 20.018 0.1044 10.735 0.1044 10.735 0.21 21.686 0.1164 7.3077 0.2322 14.615 0.3522 22.144 0.3594 23.415 0.63744 46.83 0.91356 70.246 0.2292 15.844 0.46319 31.688 0.70307 47.531 0.5874 38.906 1.064 77.811 1.5469 116.72h276v-150h-66c-39.449-1.038-58.453-5.2438-87.539-31.992-16.39-19.386-21.968-35.705-21.823-60.966v-16.011c0.0612-5.6508 0.1236-11.302 0.1878-17.124 0.018-5.8258 0.036-11.652 0.054-17.654 0.0672-18.585 0.2178-37.168 0.37019-55.752 0.06-12.609 0.114-25.219 0.1638-37.828 0.132-30.891 0.339-61.781 0.5862-92.672-155.97-14.804-155.97-14.804-295.19 35.587-20.685 22.325-37.032 43.091-46.806 72.413 2.97 8.91 2.97 8.91 6 18 5.5941 50.347-11.353 82.647-36 126h-12v12c-12.281 8.836-12.281 8.836-28.5 18.375-7.9354 4.745-7.9354 4.745-16.031 9.5859-34.407 17.881-71.479 19.905-108.84 9.9374-46.545-17.099-79.168-40.046-104.25-83.273-18.73-41.379-20.591-84.313-7.0547-127.66 20.86-46.086 50.149-72.769 95.929-93.211 41.204-15.052 74.555-14.976 114.75 2.2499 23.226-2.4009 34.833-14.302 51.375-30 7.395-6.9835 14.83-13.932 22.519-20.591 10.825-9.6875 10.825-9.6875 21.653-23.212 33.022-34.477 58.069-43.316 104.93-45.307 32.59-0.2802 65.076 0.6031 97.643 1.7353 13.574 0.2712 27.148 0.5178 40.723 0.7383 33.074 0.5454 66.075 1.6019 99.152 2.6367v-126c-14.378 0.348-28.756 0.6961-43.57 1.0546-13.98 0.234-27.959 0.4164-41.94 0.5934-9.6904 0.1506-19.38 0.3552-29.068 0.6153-13.957 0.3654-27.905 0.5346-41.866 0.6665-6.4611 0.2322-6.4611 0.2322-13.053 0.4692-23.729 0.012-33.487-2.5751-52.156-17.726-17.728-22.505-21.111-41.406-18.346-69.672 10.59-17.528 17.751-26.875 36-36 15.322-0.5196 30.477-0.6937 45.797-0.5862 6.7665 0.012 6.7665 0.012 13.67 0.024 14.428 0.036 28.855 0.1092 43.283 0.1854 9.7734 0.03 19.547 0.06 29.32 0.083 23.977 0.061 47.953 0.1788 71.929 0.2928v-132c-50.394-0.7108-100.77-1.1349-151.17-1.0727-23.41 0.018-46.806-0.084-70.213-0.4698-22.648-0.369-45.276-0.4086-67.926-0.2328-8.5824 0.012-17.166-0.09-25.745-0.3144-44.224-1.0793-78.464 2.1423-112.75 31.949-14.116 13.498-27.255 27.506-40.195 42.14-1.98 1.98-3.96 3.96-6 6-1.4788 7.9814-2.8312 15.986-4.125 24-10.07 45.898-33.298 78.589-72 105-37.835 23.524-72.065 24.837-115.87 21-53.433-13.542-82.192-42.067-113.91-85.523-20.098-34.553-17.786-84.186-8.2032-121.71 17.776-44.211 51.314-81.107 95.109-100.78 38.559-10.242 83.607-12.448 121.05 2.3673 16.821 10.363 29.999 21.702 43.945 35.648 22.553-0.402 33.554-14.463 48.707-29.678 35.888-35.14 63.787-49.351 114.01-49.973 13.377 0.177 26.717 0.684 40.085 1.2052 9.4392 0.1236 18.879 0.2172 28.318 0.2832 24.582 0.2496 49.138 0.8952 73.71 1.6304 25.178 0.6811 50.361 0.978 75.545 1.3092 49.22 0.7032 98.414 1.8618 147.62 3.2227v-132c-12.014 0.3144-24.028 0.6285-36.406 0.9522-39.918 0.999-79.837 1.6588-119.76 2.1565-24.185 0.312-48.357 0.7338-72.534 1.4177-23.382 0.6573-46.752 1.0117-70.143 1.1663-8.8733 0.1092-17.746 0.3246-26.614 0.6511-70.007 2.4725-70.007 2.4725-101.71-19.835-17.254-16.403-17.254-16.403-31.764-32.853-28.198-25.568-62.095-21.878-98.31-20.406-10.766-0.1974-10.766-0.1974-21.75-0.3984-37.136-0.4008-37.136-0.4008-67.674 17.599-7.3445 12.23-13.26 24.655-19.326 37.55-33.693 31.334-72.581 48.084-118.41 47.953-52.784-3.2811-91.809-20.673-127.59-59.953-30.886-42.836-37.826-86.146-30-138 12.802-40.999 34.911-73.774 72-96 49.346-23.29 88.274-31.173 141-14.625 32.249 12.492 54.042 29.232 75 56.625 2.2488 5.1255 4.4976 10.251 6.8144 15.532 10.201 16.577 10.201 16.577 30.738 17.758 8.0154-0.036 16.031-0.2214 24.041-0.5244 8.7734-0.018 17.547-0.036 26.32-0.048 13.773-0.1998 27.541-0.4674 41.311-0.8027 77.562-1.5729 77.562-1.5729 101.36 13.043 10.816 11.15 10.816 11.15 18.826 22.228 15.205 19.154 31.941 27.905 56.086 31.206 6.4353 0.066 12.871 0.1332 19.501 0.2016 10.988 0.1782 10.988 0.1782 22.198 0.36 7.851 0.036 15.702 0.077 23.791 0.1164 8.163 0.1008 16.326 0.21 24.489 0.3264 21.414 0.2844 42.827 0.4638 64.243 0.6207 21.88 0.1794 43.76 0.4584 65.639 0.7287 42.878 0.5154 85.757 0.9106 128.64 1.2539v-132c-10.717 0.126-21.434 0.2514-32.476 0.381-35.491 0.3876-70.981 0.663-106.47 0.8625-21.51 0.1248-43.017 0.2946-64.526 0.567-20.775 0.2616-41.547 0.4044-62.323 0.4662-11.746 0.065-23.49 0.2526-35.235 0.4422-52.732 0.012-76.865-8.8594-114.55-45.511-7.0067-7.2491-13.985-14.525-20.94-21.825-7.6723-7.8823-15.348-15.761-23.027-23.637-11.981-12.354-23.932-24.734-35.823-37.176-11.553-12.06-23.216-24.004-34.9-35.937-3.5383-3.7617-7.0765-7.5235-10.722-11.399-9.3218-9.4367-17.955-17.895-29.005-25.234-16.328-0.3162-16.328-0.3162-30 6-57.997 5.7423-97.454-4.4722-144.21-39.023-36.071-31.782-50.114-73.255-56.789-119.98 6.6659-46.661 20.791-88.533 56.765-120.37 42.636-30.058 86.797-38.813 138.23-32.625 39.589 7.9037 69.381 30.194 96 60 19.135 30.053 30.859 59.397 30.75 95.25 0.024 7.5873 0.024 7.5873 0.048 15.328-0.7968 15.422-0.7968 15.422-5.4081 28.919-2.657 31.576 22.645 55.297 41.695 78.594 6.8251 7.8585 13.716 15.66 20.666 23.408 5.2204 5.8396 5.2204 5.8396 10.546 11.797 58.226 61.913 113.29 80.116 197.41 84.108 71.646 1.595 142.86-2.2505 214.3-7.4059v-132c-13.442 0.2088-26.885 0.4176-40.734 0.6328-13.106 0.1404-26.212 0.2496-39.319 0.3558-9.0667 0.09-18.133 0.213-27.199 0.369-13.078 0.2196-26.152 0.321-39.231 0.4002-7.8552 0.094-15.71 0.1884-23.804 0.2856-26.717-2.5146-48.539-9.2757-66.337-30.168-5.2121-21.427-3.4952-40.736 2.625-61.875 11.366-14.299 19.801-21.9 36-30 14.886-0.519 29.601-0.6939 44.484-0.5862 4.3778 0.012 8.7557 0.018 13.266 0.024 14 0.036 27.999 0.1092 41.999 0.1854 9.4843 0.03 18.969 0.06 28.453 0.081 23.266 0.061 46.531 0.1788 69.797 0.2928v-132c-10.503 2.9235-21.007 5.8471-31.828 8.8593-59.86 10.944-117.88 16.189-170.39-20.053-55.734-45.387-104.29-98.525-152.42-151.69-7.9041-8.6937-7.9041-8.6937-15.968-17.563-10.019-11.147-19.907-22.415-29.642-33.811-4.4484-5.0444-8.8968-10.089-13.48-15.286-3.8358-4.4899-7.6716-8.98-11.624-13.606-12.63-10.835-12.63-10.835-31.253-7.3512-8.6088 2.2303-8.6088 2.2303-17.391 4.5058-46.622 5.2638-81.242-3.1426-120-30-35.244-31.07-56.783-65.059-61.664-112.01-1.6159-46.862 6.3969-89.614 39.117-125.27 39.712-32.828 84.783-51.124 136.41-48.211 46.417 8.9355 90.831 31.666 119.46 70.008 21.392 36.779 27.435 71.46 24.68 113.48-1.7557 5.6383-3.5114 11.277-5.3203 17.086-2.4912 18.172-2.4912 18.172 5.5811 28.352 9.3832 9.9127 19.135 19.025 29.364 28.062 12.35 11.315 24.411 22.765 36.375 34.5v12h12c7.1953 7.547 7.1953 7.547 16.125 18.75 8.5758 9.7933 17.211 19.535 25.875 29.25 2.9797 3.4389 5.9593 6.8778 9.0292 10.421 52.091 58.946 52.091 58.946 124.96 81.233 21.412 0.3264 42.626-0.6384 64.015-1.6537 5.94 1.98 11.88 3.9599 18 5.9999v-132c-36.167 0.4728-36.167 0.4728-72.332 1.0811-35.003 0.2304-59.206-1.6035-85.917-26.206-9.75-16.875-9.75-16.875-10.125-38.25 7.951-25.724 13.05-31.251 36.375-44.625 22.704-2.9095 45.034-2.2599 67.875-1.5 6.1603 0.108 12.321 0.2166 18.668 0.3282 15.158 0.282 30.305 0.6762 45.457 1.1719-0.1254-7.4453-0.2514-14.891-0.381-22.562-0.4356-27.708-0.71039-55.416-0.93755-83.127-0.1206-11.977-0.2838-23.954-0.492-35.93-0.2922-17.248-0.4272-34.491-0.5334-51.741-0.1236-5.3263-0.2478-10.653-0.3756-16.141-0.012-33.201 4.2859-52.334 26.719-78.5 32.526-23.962 58.912-27.784 98.625-28.5 16.954-0.495 33.907-0.99 51.375-1.5v-120h-282c1.9607 83.993 1.9607 83.993 3.9492 167.98 0.66575 28.402 1.2199 56.806 1.7256 85.212 0.2124 10.992 0.4596 21.982 0.74412 32.972 0.3828 14.813 0.65184 29.624 0.89352 44.44 0.1392 4.3029 0.27899 8.6059 0.42239 13.039 0.294 27.986-5.0053 46.599-19.735 70.351-17.647 14.705-28.464 17.811-51.375 20.625-20.625-2.6249-20.625-2.6249-34.875-13.5-17.591-23.681-16.563-44.128-16.717-72.804-0.042-6.3254-0.042-6.3254-0.09-12.778-0.0876-13.949-0.1284-27.898-0.1614-41.847-0.036-9.708-0.0696-19.416-0.1044-29.124-0.0636-20.362-0.0984-40.723-0.1188-61.085-0.03-26.047-0.177-52.091-0.348-78.137-0.1128-20.059-0.1428-40.118-0.1524-60.178-0.018-9.5995-0.066-19.199-0.1452-28.798-0.1032-13.456-0.0912-26.907-0.054-40.363-0.03-11.47-0.03-11.47-0.066-23.172 2.8171-26.621 11.083-46.835 29.205-66.703 27.926-21.744 45.641-26.878 80.525-27.1 7.3107-0.06 14.622-0.1152 22.154-0.1746 7.9124-0.024 15.825-0.048 23.977-0.0774 8.214-0.036 16.428-0.069 24.642-0.1038 17.229-0.063 34.458-0.0978 51.688-0.1188 21.997-0.03 43.992-0.177 65.988-0.348 16.977-0.1122 33.953-0.1428 50.93-0.1524 12.027-0.024 24.055-0.1386 36.082-0.252 38.718 0.0942 69.276 0.2316 103.01 20.193 27.439 28.884 30.75 50.151 30.586 89.133-0.012 5.9547-0.012 5.9547-0.024 12.03-0.036 12.654-0.1092 25.308-0.1854 37.962-0.03 8.5898-0.06 17.18-0.0831 25.769-0.0609 21.036-0.1782 42.07-0.2928 63.105 31.68-1.98 63.36-3.96 96-6 0.8141-67.335 1.4742-134.67 1.8652-202 0.1878-31.27 0.4422-62.536 0.8506-93.804 0.3918-30.189 0.6066-60.375 0.6998-90.567 0.067-11.504 0.1962-23.008 0.3906-34.511 0.2622-16.146 0.297-32.279 0.2808-48.427 0.1296-4.7301 0.2586-9.4602 0.3924-14.334-0.3624-32.563-9.1752-48.501-32.02-71.628-21.61-22.288-27.271-56.582-28.709-86.724 2.2993-46.357 18.799-81.944 50.414-115.64 37.303-32.65 78.675-42.222 127.15-41.648 38.238 2.9538 72.807 23.605 100.69 49.289 30.653 37.69 44.092 77.248 41.625 125.62-6.274 46.947-29.188 83.898-66.211 113.06-23.942 15.339-48.677 25.312-77.414 25.312 1.98 160.38 3.96 320.76 6 486 27.72 1.98 55.44 3.96 84 6-0.1572-5.9913-0.3144-11.983-0.4758-18.155-0.5454-22.34-0.8882-44.68-1.1718-67.025-0.1506-9.6494-0.3546-19.298-0.6153-28.945-0.366-13.913-0.5346-27.817-0.6665-41.733-0.1548-4.2764-0.3096-8.5528-0.4692-12.959-0.012-23.334 3.3477-37.972 17.726-55.905 15.672-15.277 15.672-15.277 29.36-19.847 23.605 0.7896 37.563 2.9663 58.312 15.07 36.068 58.611 18.537 156.42 18 223.5 29.7 1.98 59.4 3.96 90 6-0.2088-14.378-0.4177-28.756-0.6328-43.57-0.1406-13.98-0.2498-27.96-0.356-41.94-0.09-9.6898-0.213-19.379-0.3691-29.068-0.2192-13.956-0.3206-27.909-0.3999-41.867-0.092-4.3074-0.1858-8.6148-0.2816-13.053-0.012-26.576 3.2683-43.614 20.039-64.502 24.991-11.534 37.699-13.075 64.5-6.375 23.062 14.636 29.99 29.037 37.5 54.375 2.0434 21.291 2.0434 21.291 1.7578 43.476-0.025 3.9359-0.052 7.8717-0.077 11.927-0.1 12.41-0.3254 24.813-0.5556 37.221-0.09 8.4804-0.1725 16.961-0.2462 25.441-0.1816 20.649-0.534 41.284-0.8789 61.933 29.7 1.98 59.4 3.96 90 6 1.8121-44.192 3.106-88.333 3.5597-132.56 0.2302-20.555 0.6617-41.058 1.6039-61.594 6.2795-104.62 6.2795-104.62-37.235-195.95-23.97-24.979-49.782-47.074-77.624-67.63-3.4003-3.3883-6.8008-6.7766-10.304-10.268v-24c-5.325-2.1811-5.325-2.1811-10.758-4.4062-43.911-18.625-73.047-37.044-97.242-79.594-17.161-43.761-20.148-92.429-2.625-136.5 21.075-41.192 52.322-70.614 95.531-87.515 47.694-12.59 90.696-8.0296 133.55 16.289 39.476 28.344 65.716 65.761 78.797 112.48 1.4951 46.348-7.4671 87.624-39.375 122.25-3.7357 3.5269-7.4714 7.0537-11.32 10.687-11.108 11.158-11.108 11.158-8.5548 34.312 6.6432 9.8377 6.6432 9.8377 16.219 18.351 5.1164 4.9597 5.1164 4.9597 10.336 10.02 3.612 3.3838 7.2239 6.7676 10.945 10.254 7.0452 6.7277 14.077 13.47 21.094 20.226 3.1421 2.9579 6.2842 5.9159 9.5215 8.9634 25.911 26.698 36.901 41.769 36.609 79.942 0 3.8668 0.012 7.7336 0.012 11.718-0.017 12.697-0.2029 25.385-0.3916 38.08-0.045 8.8355-0.079 17.671-0.1032 26.507-0.091 23.191-0.327 46.379-0.5929 69.569-0.2461 23.689-0.3553 47.379-0.4761 71.068-0.257 46.435-0.6789 92.867-1.1718 139.3h96c-0.4331-14.456-0.8662-28.911-1.3125-43.805-4.8935-178.4-5.2094-356.74-5.0625-535.19 0-6.2824 0.012-12.565 0.015-19.038 0.069-78.654 0.1905-157.31 0.3595-235.96-4.6406-1.7789-9.2812-3.5578-14.062-5.3906-38.027-15.77-57.148-43.415-75.937-78.609-14.024-42.073-12.048-89.03 7.125-129 24.594-42.695 59.472-75.604 107.62-89.25 55.632-10.184 104.39 3.9152 148.47 38.445zm-1247.2 1283.8c-20.254 29.658-24.745 52.461-24.789 88.022-0.024 6.978-0.048 13.956-0.0694 21.145 0 7.6715 0.012 15.343 0.018 23.247-0.018 8.2278-0.036 16.456-0.054 24.683-0.048 22.634-0.06 45.267-0.0634 67.9-0.012 24.402-0.054 48.803-0.096 73.204-0.0814 53.368-0.1176 106.74-0.144 160.1-0.018 33.32-0.042 66.64-0.0694 99.96-0.0728 92.245-0.135 184.49-0.1554 276.74v17.892 17.935 35.98 18.027c-0.024 96.401-0.1284 192.8-0.2682 289.2-0.1422 98.963-0.2172 197.93-0.2238 296.89 0 55.568-0.042 111.14-0.1488 166.7-0.0924 47.317-0.123 94.633-0.0746 141.95 0.024 24.14 0.018 48.278-0.0668 72.417-0.0754 22.111-0.0694 44.22 0 66.331 0.018 11.762-0.054 23.524-0.1284 35.286 0.2532 45.105 2.4776 82.574 30.453 119.83 5.209 4.8494 5.209 4.8494 10.523 9.7969 3.4572 3.3258 6.9146 6.6514 10.477 10.078 23.549 18.738 41.331 22.176 71.374 22.216 11.288 0.06 11.288 0.06 22.803 0.1164 8.3661-0.018 16.732-0.036 25.099-0.054 8.8756 0.024 17.751 0.048 26.627 0.081 24.424 0.073 48.847 0.072 73.271 0.06 26.328 0 52.656 0.063 78.983 0.1206 51.595 0.1 103.19 0.1326 154.78 0.1392 41.933 0 83.865 0.03 125.8 0.069 118.84 0.1056 237.68 0.1608 356.53 0.1518 6.4093-5e-4 12.819 0 19.422 0 6.4171-5e-4 12.834 0 19.446 0 104.01 0 208.02 0.1092 312.03 0.279 106.75 0.1722 213.51 0.255 320.26 0.2448 59.951 0 119.9 0.03 179.85 0.1584 51.044 0.1092 102.09 0.1356 153.13 0.054 26.047-0.042 52.092-0.042 78.138 0.063 23.847 0.095 47.69 0.077 71.537-0.03 8.6245-0.018 17.249 0 25.873 0.071 62.276 0.7596 62.276 0.7596 115.94-27.065 54.715-56.235 48.895-132.35 48.802-205.29 0.012-7.8772 0.03-15.754 0.042-23.87 0.036-21.745 0.036-43.489 0.03-65.234 0-23.497 0.03-46.994 0.061-70.491 0.048-45.982 0.066-91.964 0.07-137.95 0-37.375 0.018-74.75 0.036-112.13 0.054-106.02 0.081-212.04 0.077-318.05-3e-4 -5.7097-5e-4 -11.42-8e-4 -17.302-1e-4 -5.7168-4e-4 -11.434-7e-4 -17.324 0-92.713 0.054-185.43 0.1398-278.14 0.086-95.248 0.1278-190.5 0.1224-285.74 0-53.455 0.012-106.91 0.079-160.37 0.054-45.494 0.067-90.987 0.024-136.48-0.018-23.204-0.018-46.407 0.03-69.611 0.054-25.165 0.018-50.328-0.03-75.493 0.03-7.3173 0.063-14.635 0.094-22.174-0.237-58.205-4.3078-106.52-47.21-150.15-32.099-29.335-61.661-39.688-105.54-39.747-7.3745-0.036-14.749-0.077-22.347-0.1176-8.1339 0.018-16.268 0.036-24.402 0.054-8.6795-0.024-17.359-0.048-26.038-0.083-23.826-0.073-47.652-0.072-71.478-0.06-25.706 0-51.412-0.063-77.118-0.1206-50.354-0.1-100.71-0.1326-151.06-0.1392-40.931 0-81.862-0.03-122.79-0.069-116.05-0.1056-232.11-0.1608-348.16-0.1518-6.2561 6e-4 -12.512 0-18.958 0-6.2638 6e-4 -12.527 0-18.981 0-101.52 0-203.04-0.1092-304.55-0.279-104.24-0.1722-208.49-0.255-312.73-0.2448-58.523 0-117.05-0.03-175.57-0.1584-49.826-0.1092-99.652-0.1356-149.48-0.054-25.416 0.042-50.831 0.042-76.248-0.063-23.284-0.095-46.566-0.078-69.85 0.03-8.4063 0.018-16.813 0-25.219-0.069-63.86-0.4746-115.11 5.5418-157.84 57.065z" stroke-width="6"/><path transform="matrix(.013422 0 0 .013422 3.302 3.091)" d="m1205.2-230.23c8.7424 5e-3 8.7424 5e-3 17.661 9e-3 85.496 0.12324 170.02 1.6405 255.06 11.181 5.8557 0.60502 11.711 1.21 17.744 1.8334 182.16 19.121 363.87 57.347 537.21 116.81 77.293 26.854 154.1 55.242 227.71 91.097 5.371 2.5981 10.742 5.1962 16.276 7.8731 97.839 47.536 191.92 98.456 281.76 159.97 8.44 5.772 16.92 11.485 25.403 17.195 87.821 59.71 169.24 126.7 247.8 198.03 7.7594 7.0446 15.551 14.054 23.38 21.022 141.46 126 141.46 126 192.67 186.32 17.376 19.998 35.863 38.677 54.672 57.31 4.5512 4.509 4.5512 4.509 9.1944 9.1092 12.704 12.562 25.426 25.104 38.17 37.625 9.3851 9.2316 18.739 18.494 28.089 27.761 2.9088 2.84 5.8177 5.68 8.8147 8.6061 6.9092 6.8642 13.553 13.994 20.14 21.168v10.231h10.231c6.6742 6.6142 6.6742 6.6142 14.707 16.306 16.536 19.499 33.694 38.248 51.155 56.91 23.318 25.047 45.349 50.817 66.781 77.512 9.8176 12.022 19.97 23.55 30.413 35.029 17.653 19.638 34.186 40.01 50.516 60.747 2.3533 2.9793 4.7066 5.9587 7.1312 9.0283 6.6709 8.5385 13.214 17.161 19.725 25.821 3.9301 5.1501 7.8603 10.3 11.91 15.606 2.8223 4.9786 5.6446 9.9573 8.5525 15.087 1.6069 14.783 1.6069 14.783 0 30.693-7.0933 12.281-7.0933 12.281-17.157 24.106-3.7568 4.4143-7.5135 8.8287-11.384 13.377-21.106 23.304-42.977 45.724-65.256 67.904-4.9649 4.9718-9.9282 9.9451-14.89 14.92-10.292 10.308-20.603 20.597-30.927 30.872-13.246 13.187-26.444 26.42-39.63 39.667-10.189 10.226-20.402 20.427-30.622 30.621-7.2512 7.241-14.482 14.503-21.712 21.764-4.3735 4.3413-8.7469 8.6825-13.253 13.155-5.7787 5.7664-5.7787 5.7664-11.674 11.649-3.135 2.7063-6.27 5.4125-9.4999 8.2008h-10.231v10.231h-10.231v10.231c-6.9738 7.0338-6.9738 7.0338-16.945 15.346-17.688 15.027-34.99 30.372-52.114 46.04-69.472 63.208-142.4 121.31-217.99 177.04-6.0928 4.4967-12.174 9.009-18.239 13.543-129.4 96.667-274.29 180.84-421.95 246.3-146.76 63.311-299.7 114.35-457.01 143.57-33.238 6.027-66.575 11.406-99.963 16.529-9.1752 1.4142-18.343 2.8768-27.51 4.3442-140.5 21.736-288.14 19.016-429.76 10.326-35.328-2.8497-70.224-7.4866-105.21-13.128-3.501-0.5593-7.002-1.1187-10.609-1.6951-116.52-18.756-229.55-45.654-342.36-80.153-8.1728-2.4113-16.346-4.8226-24.518-7.2336-134.96-41.228-267.44-102.16-389.6-172.17-84.464-48.997-167.25-100.13-245.78-158.22-3.2757-2.3995-6.5513-4.799-9.9263-7.2711-44.808-32.843-88.113-66.896-130.13-103.23-14.841-12.806-29.791-25.484-44.738-38.166-2.7873-2.3809-5.5746-4.7618-8.4463-7.2149-12-10.197-23.829-19.524-36.954-28.274v-10.231c-2.9278-1.2463-5.8557-2.4927-8.8722-3.7767-3.8247-2.13-7.6493-4.2599-11.59-6.4544-7.4762-6.9-14.707-14.071-21.741-21.421-13.802-14.381-27.926-27.878-43.046-40.842-21.867-19.061-42.486-39.154-62.961-59.69-5.5765-5.5692-5.5765-5.5692-11.266-11.251-7.7997-7.7962-15.593-15.599-23.38-23.407-11.822-11.849-23.671-23.671-35.523-35.49-7.625-7.6283-15.248-15.258-22.87-22.89-5.2368-5.2214-5.2368-5.2214-10.58-10.548-22.794-22.904-44.25-46.682-65.334-71.16-3.9038-4.3258-7.8075-8.6516-11.83-13.108-8.6324-12.469-8.6324-12.469-16.625-29.094-0.73857-6.3304-1.4771-12.661-2.238-19.183 3.477-10.551 3.477-10.551 9.2718-21.741 18.147-28.927 40.181-54.678 62.345-80.569 4.8252-5.7192 9.6475-11.441 14.467-17.165 28.886-34.145 58.473-67.498 89.148-100.05 6.466-6.8935 12.821-13.891 19.157-20.904 1.6881-3.3763 3.3762-6.7525 5.1155-10.231h10.231c1.154-2.8355 2.308-5.671 3.4969-8.5925 2.2223-3.9169 4.4445-7.8339 6.7341-11.87 8.3948-8.9675 17.054-17.692 25.897-26.217 8.5053-8.2247 16.943-16.521 25.258-24.938 1.6881-3.3762 3.3762-6.7525 5.1155-10.231h10.231v-10.231h10.231v-10.231h10.231c1.6881-5.0643 3.3762-10.129 5.1155-15.346 8.3045-8.7415 16.846-17.262 25.578-25.578 2.8487-3.0598 5.6974-6.1194 8.6324-9.2719 2.2157-2.0046 4.4313-4.0092 6.7141-6.0746h10.231c1.6881-5.0644 3.3762-10.129 5.1155-15.347 7.4734-7.5333 7.4734-7.5333 17.265-15.666 17.316-14.662 34.158-29.695 50.835-45.08 27.637-25.173 56.226-48.854 85.365-72.256 5.9112-4.8453 11.819-9.6946 17.724-14.547 45.291-37.019 92.017-70.936 140.86-103.11 4.1601-2.7563 8.3202-5.5127 12.606-8.3526 72.035-47.508 145.97-90.321 222.71-129.77 4.7776-2.4588 9.555-4.9176 14.477-7.4509 127.39-64.835 263.64-115.75 402.33-150.47 39.945-9.5451 80.071-18.065 120.32-26.237 3.9392-0.83582 7.8784-1.6716 11.937-2.5328 134.32-28.43 271.96-31.349 408.69-29.14 82.773 1.6701 167.61 3.7348 249.51 16.327 3.3763 1.6881 6.7525 3.3762 10.231 5.1155v-35.809c-3.9038 1.0551-7.8075 2.1102-11.83 3.1972-4.5368 0.63304-9.0736 1.2661-13.748 1.9183-5.0644-3.3762-10.129-6.7525-15.346-10.231-5.0644-1.6881-10.129-3.3762-15.346-5.1155 1.688-10.129 3.3762-20.257 5.1154-30.693h-15.346v10.231c-3.3762-1.6881-6.7524-3.3762-10.231-5.1155-3.3762-1.5826-6.7524-3.1652-10.231-4.7958-3.3762-1.7936-6.7525-3.5872-10.231-5.4352-3.3762-3.3762-6.7525-6.7525-10.231-10.231h-15.346v-10.231h-14.068-37.087c-11.945-3.3806-23.88-6.794-35.809-10.231-5.9084-0.84406-11.817-1.6881-17.904-2.5578-17.904-2.5578-17.904-2.5578-35.808-7.993-5.9085-1.5826-11.817-3.1652-17.904-4.7958h-17.904-17.904c-4.8203-1.5233-9.6407-3.0465-14.607-4.616-29.813-8.9258-61.012-10.605-91.859-13.608-6.6914-0.66148-13.383-1.323-20.277-2.0045-179.59-17.366-361.52-16.138-540.61 6.7619-195.42 25.729-387.2 70.742-572.2 139.3-83.445 31.709-166.4 65.272-247.53 102.52-18.968 8.693-37.725 16.526-57.796 22.298-5.1698-0.21099-10.34-0.42204-15.666-0.63941-4.9589-1.4771-9.9177-2.9542-15.027-4.4761-4.6423-2.7432-9.2846-5.4864-14.068-8.3127-3.7983-4.0093-7.5965-8.0186-11.51-12.149-2.5322-5.3809-5.0644-10.762-7.6733-16.306-0.84406-6.4359-1.6881-12.872-2.5578-19.503 1.2189-11.47 1.2189-11.47 4.1563-23.34 4.4636-11.124 4.4636-11.124 11.19-22.7 17.099-14.538 36.75-25.715 56.502-36.299 10.69-5.2232 21.476-10.094 32.38-14.856 4.2512-1.8765 8.5024-3.7529 12.882-5.6862 125.73-54.75 252.88-103.16 384.21-142.66 5.4361-1.665 10.872-3.3301 16.473-5.0456 184.05-56.037 374.69-84.235 566.08-100.6 54.14-3.3822 108.49-2.7905 162.72-2.7376zm661.5 220.93v10.231c3.3762-1.6881 6.7524-3.3762 10.231-5.1155-3.3762-1.6881-6.7525-3.3762-10.231-5.1155zm-15.346 0c-3.3762 3.3762-6.7525 6.7525-10.231 10.231 5.0644 1.6881 10.129 3.3762 15.347 5.1155v-15.347h-5.1155zm5.1155 20.462 5.1155 10.231zm46.04-5.1155c-3.3762 3.3762-6.7524 6.7525-10.231 10.231 7.5966 5.0644 7.5966 5.0644 15.346 10.231v-20.462h-5.1155zm10.231 30.693c-5.0643 5.0644-10.129 10.129-15.346 15.347 10.129 5.0644 10.129 5.0644 20.462 10.231 3.3762-5.0644 6.7524-10.129 10.231-15.347-5.0644-3.3762-10.129-6.7525-15.347-10.231zm25.578 5.1155c-3.3763 8.4406-6.7525 16.881-10.231 25.578 6.7774 1.8696 13.608 3.5489 20.462 5.1155h15.346c1.6881-5.0644 3.3763-10.129 5.1155-15.347-1.6881-5.0644-3.3762-10.129-5.1155-15.347h-25.578zm61.386 0v15.347c3.3763-3.3762 6.7525-6.7525 10.231-10.231-3.3763-1.6881-6.7525-3.3762-10.231-5.1155zm-20.462 0c-3.3762 3.3762-6.7525 6.7525-10.231 10.231 5.0644 5.0644 10.129 10.129 15.346 15.347 1.6882-6.7525 3.3763-13.505 5.1156-20.462-3.3763-1.6881-6.7525-3.3762-10.231-5.1155zm-214.85 184.16v15.347c3.3762-3.3763 6.7524-6.7525 10.231-10.231-3.3763-1.6881-6.7525-3.3762-10.231-5.1155zm-347.85 5.1155v15.347c3.3763-3.3762 6.7525-6.7525 10.231-10.231-3.3762-1.6881-6.7525-3.3762-10.231-5.1155zm204.62-10.231c-5.0644 5.0644-10.129 10.129-15.346 15.347 5.0643 3.3763 10.129 6.7525 15.346 10.231-42.551-8.714-42.551-8.714-60.747-16.625-3.5872-1.2661-7.1744-2.5322-10.87-3.8366-5.0644 3.3762-10.129 6.7524-15.346 10.231-6.1722-1.266-6.1722-1.266-12.469-2.5577-6.4887-1.2661-6.4887-1.2661-13.108-2.5578-3.3763 1.6881-6.7525 3.3762-10.231 5.1155-3.3762 1.6881-6.7525 3.3763-10.231 5.1155-8.5645-1.4988-17.095-3.207-25.578-5.1155-11.416 1.8854-11.416 1.8854-20.462 5.1155v10.231c-5.0644 1.6881-10.129 3.3762-15.347 5.1155-8.528 7.6726-8.528 7.6726-15.346 15.347-2.7814-15.646-5.1155-30.119-5.1155-46.04-7.674 6.8184-7.674 6.8184-15.346 15.347-1.6881 5.0644-3.3762 10.129-5.1155 15.346 5.0643 7.5966 5.0643 7.5966 10.231 15.347-10.129-3.3762-20.257-6.7524-30.693-10.231-10.551 9.2705-10.551 9.2705-20.462 20.462v15.347h-5.1155c-5.8556-1.5827-5.8556-1.5827-11.83-3.1972-4.5368-0.63303-9.0736-1.266-13.748-1.9183-10.572 4.6466-10.572 4.6466-20.462 10.231h-20.462c2.5322 12.661 2.5322 12.661 5.1156 25.578-4.7479 0.94964-4.7479 0.94964-9.5916 1.9183-3.5873 1.0551-7.1745 2.1102-10.87 3.1972-3.3762 3.3762-6.7524 6.7524-10.231 10.231-2.3211-3.1652-4.6423-6.3304-7.0338-9.5916-8.1648-11.173-8.1648-11.173-18.544-21.101-3.3763 3.3762-6.7525 6.7524-10.231 10.231h10.231c-3.3763 6.7525-6.7525 13.505-10.231 20.462-6.8207-3.4103-13.641-6.8206-20.462-10.231-5.0643 3.3762-10.129 6.7524-15.346 10.231 5.0644 5.0644 10.129 10.129 15.346 15.347-8.4406 1.6881-16.881 3.3763-25.578 5.1155v20.462c-5.0644-1.6881-10.129-3.3762-15.346-5.1155 1.6881-3.3762 3.3762-6.7524 5.1155-10.231-3.3763-3.3763-6.7525-6.7525-10.231-10.231-3.3762 3.3763-6.7525 6.7525-10.231 10.231-8.556 7.349-17.194 14.595-25.837 21.841-38.218 33.93-74.875 72.086-105.05 113.46-36.662 52.447-69.543 109.1-94.045 168.27-20.256 52.758-32.313 106.21-41.076 161.94-0.87992 4.7181-1.7598 9.4363-2.6664 14.297-9.0816 60.798-5.477 128.26-1.4974 189.66 4.4566 45.256 16.718 88.278 30.701 131.43 17.93 52.223 38.305 103.29 66.659 150.8 37.04 59.148 81.712 112.46 130.39 162.32 44.17 41.985 94.648 75.619 146.75 106.91 47.415 27.699 96.267 52.218 148.51 69.416 62.136 18.307 127.71 31.323 192.45 35.199 59.131 2.3456 117.11-2.5224 175.29-13.193 58.404-11.814 114.92-29.246 169.45-53.296 52.696-24.196 103.09-51.405 149.31-86.644 50.96-39.957 98.884-83.86 140.04-133.96 33.599-42.011 64.17-85.45 88.123-133.72 28.578-60.616 45.408-124.57 60.327-189.69 12.146-57.036 11.746-113.52 11.25-171.65-0.9942-47.371-6.82-92.927-16.466-139.26-1.9585-9.7627-1.9585-9.7627-3.9565-19.723-10.986-47.017-29.157-90.542-49.836-134.06-23.449-47.563-50.92-92.122-84.375-133.31-38.464-45.822-80.701-90.327-127.84-127.26-5.0644-1.6881-10.129-3.3762-15.346-5.1155-5.0644-5.0644-5.0644-5.0644-10.231-10.231v10.231c-8.6471-4.9078-17.157-10.059-25.578-15.347-9.2718-8.6324-9.2718-8.6324-15.346-15.347-3.3763 1.6881-6.7525 3.3763-10.231 5.1155-1.2661-3.0596-2.5322-6.1194-3.8367-9.2718-3.1652-5.5392-3.1652-5.5392-6.3943-11.19-3.0598-3.0597-6.1195-6.1194-9.2719-9.2718-3.6928-2.0046-7.3855-4.0093-11.19-6.0747-8.5645 1.4988-17.095 3.207-25.578 5.1155-10.87-4.7958-10.87-4.7958-20.462-10.231h-15.346c-10.29-3.2282-20.532-6.6181-30.693-10.231 1.6881-5.0644 3.3763-10.129 5.1156-15.347h-15.347c-3.3762 1.1606-6.7525 2.3212-10.231 3.5169-3.3762 0.52755-6.7525 1.0551-10.231 1.5986-2.8488-2.2156-5.6974-4.4313-8.6324-6.7141-6.7141-8.6324-6.7141-8.6324-11.83-18.863-5.8556 2.5322-5.8556 2.5322-11.83 5.1155-6.8052 2.5322-6.8052 2.5322-13.748 5.1155h-15.346v-10.231c-5.0643-2.5322-5.0643-2.5322-10.231-5.1155-3.0861 1.7277-6.1722 3.4554-9.3518 5.2354-3.6664 1.6486-7.3328 3.2971-11.11 4.9956-12.069-2.3579-12.069-2.3579-24.299-7.0338-6.1326-2.275-6.1326-2.275-12.389-4.596-3.0861-1.2265-6.1722-2.4531-9.3518-3.7167-3.3762 3.3762-6.7525 6.7525-10.231 10.231-6.8632-1.5252-13.675-3.2812-20.462-5.1155h-17.585c-18.224 0-18.224 0-32.611-1.9183-3.6928-1.0551-7.3856-2.1101-11.19-3.1972-5.0643-5.0644-5.0643-5.0644-10.231-10.231zm245.54 30.693v15.347c3.3762-3.3762 6.7524-6.7525 10.231-10.231-3.3762-1.6881-6.7525-3.3762-10.231-5.1155zm-588.28 25.578v15.346c3.3762-3.3762 6.7524-6.7524 10.231-10.231-3.3762-1.6881-6.7524-3.3762-10.231-5.1155zm670.13 0 5.1155 10.231zm-685.48 10.231v15.347c3.3763-3.3762 6.7525-6.7525 10.231-10.231-3.3762-1.6881-6.7524-3.3762-10.231-5.1155zm35.809 0 5.1155 10.231zm-66.502 20.462 5.1155 10.231zm-25.578 15.347v15.347c3.3762-3.3762 6.7524-6.7525 10.231-10.231-3.3763-1.6881-6.7525-3.3762-10.231-5.1155zm40.924 0v15.347c3.3762-3.3762 6.7525-6.7525 10.231-10.231-3.3762-1.6881-6.7524-3.3762-10.231-5.1155zm1104.9 46.04c-5.0644 7.5965-5.0644 7.5965-10.231 15.346 3.3762 3.3763 6.7524 6.7525 10.231 10.231 3.3762-6.7524 6.7525-13.505 10.231-20.462-3.3762-1.6881-6.7525-3.3762-10.231-5.1155zm40.924 5.1155v15.346c3.3763-3.3762 6.7525-6.7524 10.231-10.231-3.3763-1.6881-6.7525-3.3762-10.231-5.1155zm-15.346 10.231v15.346c3.3762-3.3762 6.7524-6.7524 10.231-10.231-3.3762-1.6881-6.7524-3.3762-10.231-5.1155zm-1514.2 5.1155c-3.3762 5.0644-6.7524 10.129-10.231 15.347-8.3878 6.9897-16.898 13.838-25.578 20.462-10.129-7.5966-10.129-7.5966-20.462-15.346-11.025 5.1186-20.806 10.478-30.693 17.584-6.8727 5.3693-13.693 10.806-20.462 16.306-10.231 7.0338-10.231 7.0338-20.782 11.51-3.2708 0.2107-6.5414 0.422-9.9113 0.6394-8.9522-7.3535-8.9522-7.3535-15.347-15.346-1.6881 8.4406-3.3763 16.881-5.1155 25.578h-15.346c-8.6315 6.4996-8.6315 6.4996-15.347 15.346-1.6881 5.0644-3.3763 10.129-5.1155 15.347-1.6881 1.6881-3.3762 3.3762-5.1155 5.1155v-10.231c-6.7524-1.6882-13.505-3.3763-20.462-5.1156-1.6881 6.7525-3.3762 13.505-5.1155 20.462-15.736 1.4987-15.736 1.4987-31.472 2.9974-3.119 0.6989-6.2382 1.3979-9.4517 2.1181-1.6881 3.3762-3.3762 6.7524-5.1155 10.231h-61.386c-3.3763 6.7525-6.7525 13.505-10.231 20.462 7.5966 2.5321 7.5966 2.5321 15.347 5.1154-1.6881 5.0644-3.3762 10.129-5.1155 15.347-4.4313-2.6905-4.4313-2.6905-8.9522-5.4353-5.6974-2.3739-5.6974-2.3739-11.51-4.7958-5.2226 0.4748-5.2226 0.4748-10.551 0.9592-3.2707 1.3716-6.5415 2.7432-9.9113 4.1563-8.8469 6.7151-8.8469 6.7151-15.346 15.347-1.6881 5.0643-3.3763 10.129-5.1155 15.346-3.2707 0.7385-6.5414 1.4771-9.9113 2.238-3.4817 0.9495-6.9635 1.8992-10.551 2.8775-6.5702 10.148-6.5702 10.148-10.231 20.462h-15.347c-2.5322-10.129-2.5322-10.129-5.1155-20.462-8.4406 8.4406-16.881 16.881-25.578 25.578 5.0644 10.129 5.0644 10.129 10.231 20.462-4.6424 2.7431-9.2847 5.4863-14.068 8.3127-8.5906 5.5018-8.5906 5.5018-16.625 12.149-9.859 13.323-18.18 26.13-25.578 40.924 4.5612 10.829 4.5612 10.829 10.231 20.462h-15.347c-1.6881-5.0644-3.3762-10.129-5.1155-15.347-10.435 6.9737-10.435 6.9737-20.462 15.347v10.231c-7.6733 8.3127-7.6733 8.3127-15.347 15.346-24.299-9.5916-24.299-9.5916-35.809-15.346-6.7525 8.4406-13.505 16.881-20.462 25.578 6.7524 5.0644 13.505 10.129 20.462 15.346-9.1586 4.9956-18.317 9.9912-27.476 14.987-2.7498 1.8068-5.4996 3.6136-8.3327 5.4752-1.6881 3.3762-3.3763 6.7524-5.1155 10.231-6.7524-3.3762-13.505-6.7524-20.462-10.231-3.3762 5.0643-6.7524 10.129-10.231 15.346 5.0644 7.5966 5.0644 7.5966 10.231 15.347-3.6334 1.121-7.2668 2.242-11.01 3.397-14.118 4.871-27.094 9.7847-40.145 17.065-2.0046 5.2754-4.0093 10.551-6.0747 15.986 0.47472 7.28 0.47472 7.28 0.95915 14.707 2.5322 5.0644 2.5322 5.0644 5.1155 10.231-7.5965 2.5321-7.5965 2.5321-15.347 5.1155-7.5965 5.0643-7.5965 5.0643-15.347 10.231 2.5322-7.5966 2.5322-7.5966 5.1155-15.346h-15.347c-1.6881 5.0643-3.3762 10.129-5.1155 15.346h-15.347c-3.6927 2.7432-7.3855 5.4864-11.19 8.3127-4.5896 6.0139-4.5896 6.0139-9.2719 12.149v15.346 15.347c-10.231 12.149-10.231 12.149-20.462 20.462-5.0644-3.3763-10.129-6.7525-15.347-10.231v15.346c3.2491 11.981 6.6434 23.924 10.231 35.809-8.9521 3.1972-8.9521 3.1972-20.462 5.1155-11.51-4.7958-11.51-4.7958-20.462-10.231v15.347c6.5353 10.416 13.336 20.672 20.462 30.693-3.2707 0.5275-6.5415 1.0551-9.9113 1.5986-3.4817 1.1605-6.9635 2.3211-10.551 3.5169-1.6881 5.0644-3.3762 10.129-5.1155 15.346 3.3762 5.0643 6.7525 10.129 10.231 15.346-5.0644 1.6881-10.129 3.3763-15.347 5.1155-1.6881 5.0644-3.3762 10.129-5.1155 15.346 0.94959 3.4818 1.8991 6.9635 2.8775 10.551 3.64 4.9061 3.64 4.9061 7.3535 9.9113 15.561 6.6109 15.561 6.6109 30.693 10.231-10.129 1.6881-20.257 3.3762-30.693 5.1155 6.1722 5.8557 6.1722 5.8557 12.469 11.83 6.4887 6.8052 6.4887 6.8052 13.108 13.748 1.6881 5.0644 3.3762 10.129 5.1155 15.347 8.6531 8.7706 8.6531 8.7706 19.183 17.265 16.686 13.947 32.061 28.617 47.318 44.121 53.718 56.551 53.718 56.551 112.54 107.43 6.7378 3.5713 13.542 7.0278 20.462 10.231v10.231c7.7135 7.0334 15.783 13.677 23.979 20.142 18.773 14.976 37.241 30.083 55.353 45.861 65.633 56.892 137.62 105.63 211.04 151.84 11.792 7.4623 23.496 15.05 35.202 22.648 122.32 78.533 253.11 143.49 389.9 192.64 152.12 54.108 305.34 92.915 465.92 111.77 20.655 2.2182 40.887 2.5388 61.666 2.4579 5.0644 1.6881 10.129 3.3762 15.346 5.1154 23.636 1.4776 47.301 1.4209 70.978 1.5987 9.822 0.2225 9.822 0.2225 19.842 0.4496 6.3107 0.041 12.621 0.086 19.123 0.13 5.7692 0.075 11.538 0.1493 17.482 0.226 5.2168-0.7933 10.434-1.5867 15.809-2.404 8.7439-6.5389 17.311-13.33 25.578-20.462 4.7479 0.422 9.4957 0.8441 14.387 1.2789 3.6927 1.266 7.3855 2.5321 11.19 3.8366v15.347c9.911 0.138 19.822 0.2373 29.734 0.3197 8.2791 0.089 8.2791 0.089 16.725 0.18 4.9259-0.1647 9.8518-0.3299 14.927-0.4997 5.0644-1.6882 10.129-3.3763 15.347-5.1156 12.942-0.8641 25.831-1.5236 38.786-2.0582 46.775-2.3808 92.479-8.5386 138.66-16.166 4.0508-0.6599 8.1017-1.3197 12.275-1.9996 129.47-21.313 255-56.368 376.42-106.23 157.06-65.545 307.21-144.6 445.98-243.51 22.618-16.235 44.985-32.789 67.246-49.509 2.8883-2.1629 5.7766-4.3258 8.7523-6.5542 42.744-32.108 83.774-65.961 124.25-100.87 3.7257-3.2048 7.4514-6.4096 11.29-9.7115 24.531-21.284 48.477-43.199 72.436-65.123 11.431-10.295 23.043-20.226 34.889-30.034 4.7478-4.2203 9.4956-8.4406 14.387-12.789v-10.231c2.9278-1.3188 5.8557-2.6377 8.8723-3.9965 12.671-6.8159 22.507-14.678 33.331-24.139 3.6136-3.1125 7.2272-6.2249 10.95-9.4317 2.7169-2.7959 5.4337-5.5919 8.2328-8.4726v-10.231c2.8487-1.1606 5.6974-2.3211 8.6325-3.5169 12.808-6.7615 12.808-6.7615 25.897-18.863 3.7983-4.4313 7.5965-8.8626 11.51-13.428v-20.462c-7.2629-11.394-7.2629-11.394-15.346-20.462h25.578c5.0643 1.6882 10.129 3.3762 15.346 5.1155 1.6882-8.4405 3.3762-16.881 5.1155-25.578-12.661-5.0643-12.661-5.0643-25.578-10.231v-10.231c3.3762-3.3763 6.7524-6.7525 10.231-10.231h-10.231c3.3762-6.7525 6.7524-13.505 10.231-20.462h-15.346c-11.102 7.3659-11.102 7.3659-20.462 15.347 1.6882-3.9039 3.3763-7.8076 5.1156-11.83 1.6881-4.5369 3.3762-9.0737 5.1155-13.748v-15.346h-10.231c1.6882-8.4406 3.3763-16.881 5.1156-25.578h-15.346c-6.8207-13.641-13.641-27.283-20.462-40.924-7.5965 2.5322-7.5965 2.5322-15.346 5.1155-1.6881 1.6882-3.3763 3.3762-5.1155 5.1155-5.0644-5.0643-10.129-10.129-15.346-15.346 1.6881-5.0644 3.3762-10.129 5.1155-15.346-6.7249-10.248-6.7249-10.248-15.346-20.462-1.6882-3.4817-3.3763-6.9634-5.1155-10.551-1.6882-3.2708-3.3763-6.5415-5.1156-9.9114-7.8841-8.7435-7.8841-8.7435-15.346-15.346 3.3762-1.6881 6.7524-3.3762 10.231-5.1155-5.0643-3.3762-10.129-6.7525-15.346-10.231 1.6881-5.0643 3.3763-10.129 5.1156-15.346h-15.347c-3.3762 1.6881-6.7525 3.3762-10.231 5.1155 1.6881-6.7525 3.3762-13.505 5.1155-20.462-14.402-10.363-14.402-10.363-28.135-15.346-12.789-5.1155-12.789-5.1155-28.135-15.347v-10.231l15.346-5.1155c-6.7524-5.0644-13.505-10.129-20.462-15.346-6.7525 3.3762-13.505 6.7525-20.462 10.231 0.9496-3.2707 1.8991-6.5414 2.8775-9.9113 0.7385-3.4818 1.4771-6.9635 2.238-10.551-1.6881-1.6881-3.3762-3.3763-5.1155-5.1155 3.3762-5.0644 6.7524-10.129 10.231-15.346-5.0644-3.3763-10.129-6.7525-15.346-10.231-6.0747-13.428-6.0747-13.428-10.231-25.578l-10.231 10.231c-3.3132 13.15-3.3132 13.15-5.1155 25.578-1.6882-3.3763-3.3763-6.7525-5.1155-10.231-10.357-3.3359-10.357-3.3359-20.462-5.1155 8.4406-1.6881 16.881-3.3762 25.578-5.1155-0.9961-9.9752-0.9961-9.9752-5.1155-20.462-10.061-5.8832-10.061-5.8832-20.462-10.231-1.6881-3.3763-3.3762-6.7525-5.1155-10.231l-25.578 25.578c-4.0093 0.3166-8.0186 0.6331-12.149 0.9592-4.4312-2.0047-8.8626-4.0093-13.428-6.0747-8.5948-14.702-14.679-30.048-20.462-46.04h-10.231c-0.4747-4.7479-0.4747-4.7479-0.9591-9.5916-1.3716-3.5873-2.7432-7.1745-4.1564-10.87-12.739-6.6328-12.739-6.6328-25.578-10.231 8.4406-5.0643 16.881-10.129 25.578-15.346-7.5965-7.5965-7.5965-7.5965-15.346-15.347-10.129 3.3763-20.257 6.7525-30.693 10.231v-15.346c-11.874-2.0955-23.83-3.741-35.809-5.1155-14.387 1.8403-14.387 1.8403-25.578 5.1155 12.661-5.0644 12.661-5.0644 25.578-10.231-3.3762-5.0643-6.7525-10.129-10.231-15.346h-20.462l-10.231 10.231c-3.3763-6.7525-6.7525-13.505-10.231-20.462h35.809v-15.346c-6.7775-1.8696-13.608-3.5489-20.462-5.1155h-15.347c-5.0643-3.3762-10.129-6.7525-15.346-10.231-18.617 1.6232-18.617 1.6232-35.808 5.1155-1.6882-3.3763-3.3762-6.7525-5.1155-10.231v10.231c-10.231-10.231-20.462-20.462-30.693-30.693l5.1155-5.1155c5.0644-1.6882 10.129-3.3763 15.347-5.1156-3.3763-3.3762-6.7525-6.7524-10.231-10.231-13.002-0.8528-13.002-0.8528-25.578 0h-5.1155l-10.231-10.231c-2.8775-9.9113-2.8775-9.9113-5.1155-20.462-1.6881-5.0644-3.3762-10.129-5.1155-15.346-8.4406 1.6881-16.881 3.3762-25.578 5.1154-3.3762 10.129-6.7524 20.258-10.231 30.693-1.6882-5.0644-3.3763-10.129-5.1156-15.346 3.3763-3.3762 6.7525-6.7525 10.231-10.231-5.0643-3.3763-10.129-6.7525-15.346-10.231h-15.346c-7.5965 2.5322-7.5965 2.5322-15.346 5.1154 3.3762-13.505 6.7525-27.01 10.231-40.924h-15.346c-1.3716 4.0093-2.7432 8.0186-4.1564 12.149-2.0047 4.4312-4.0093 8.8626-6.0746 13.428-7.5966 5.0643-7.5966 5.0643-15.346 10.231-3.3763-8.4406-6.7525-16.881-10.231-25.578-3.0597 1.7936-6.1194 3.5873-9.2718 5.4352-5.5391 2.374-5.5391 2.374-11.19 4.7958-5.0643-1.6881-10.129-3.3762-15.346-5.1155-8.6324-10.551-8.6324-10.551-15.346-20.462-5.6974 1.4243-5.6974 1.4243-11.51 2.8775-4.6424 0.7385-9.2847 1.4771-14.068 2.238-11.83-2.238-11.83-2.238-20.462-5.1155-1.6881 5.0644-3.3762 10.129-5.1155 15.346 7.3816 12.384 14.963 23.81 23.34 35.489 32.176 46.618 56.688 94.994 77.663 147.68 25.949 68.036 44.039 138.36 54.801 210.32 0.9441 6.9515 1.87 13.906 2.7776 20.862 0.4824 3.4495 0.9644 6.8991 1.4612 10.453 8.0915 63.328 7.4416 129.73 2.5378 193.29-3.0767 27.934-8.252 55.28-14.23 82.722-0.8506 4.1082-1.7013 8.2164-2.5778 12.449-11.94 56.693-28.706 110.05-52.554 162.88-3.7619 8.0728-7.5522 16.132-11.37 24.179-1.9329 4.0835-3.8658 8.167-5.8574 12.374-25.554 53.069-54.681 101.74-91.257 147.96-22.7 27.871-46.77 54.211-71.697 80.09-5.2918 5.7765-5.2918 5.7765-10.691 11.67-39.026 41.348-85.339 76.025-132.44 107.68-65.341 42.16-135.28 76.153-207.74 104.12-15.242 5.8836-30.232 12.162-45.26 18.564-11.643 4.6803-22.331 8.4363-34.65 10.83-9.8453 1.2077-19.73 2.0798-29.614 2.9174-12.84 2.4061-25.593 5.1188-38.366 7.8531-4.2203 0.8902-8.4405 1.7804-12.789 2.6976-4.2203 0.9034-8.4407 1.8068-12.789 2.7376-13.033 2.0975-25.191 2.1007-38.366 2.0582-18.994 3.6583-18.994 3.6583-35.808 10.231-1.6882 5.0644-3.3763 10.129-5.1155 15.346-3.3763 1.6881-6.7525 3.3763-10.231 5.1156-1.6881-3.3763-3.3762-6.7525-5.1155-10.231-3.3762 3.3763-6.7525 6.7525-10.231 10.231-5.0644 1.688-10.129 3.3762-15.346 5.1154-8.6715-4.8645-17.207-9.9807-25.578-15.346h-10.231l-5.1155-10.231c-2.6376 3.1652-5.2753 6.3304-7.9929 9.5916-4.1148 3.5872-8.2296 7.1745-12.469 10.87-19.183 6.3943-19.183 6.3943-35.808 10.231 4.1147-2.2156 8.2296-4.4312 12.469-6.7141 4.3258-2.8487 8.6516-5.6973 13.108-8.6324 1.6881-5.0643 3.3763-10.129 5.1155-15.346-6.7525-1.6881-13.505-3.3762-20.462-5.1155-3.3763 5.0643-6.7525 10.129-10.231 15.346-29.291-14.305-29.291-14.305-41.883-23.659-7.1218-3.4818-7.1218-3.4818-14.387-7.0338-13.814-1.6758-27.458-2.5564-41.364-3.0374-4.9193-0.6857-9.8386-1.3716-14.907-2.0781-12.016-4.9256-23.948-10.057-35.808-15.346-12.768-4.1059-25.509-8.04-38.366-11.83-58.903-18.121-113.94-39.495-167.53-70.018-64.693-37.881-126.41-81.849-181.6-132.68-8.9969-8.5857-17.956-17.212-26.856-25.897-3.2575-3.0004-6.5151-6.0008-9.8713-9.0921-32.226-30.37-58.814-66.445-83.719-102.92-42.112-63.448-76.534-128.96-103.66-200.13-22.294-60.428-38.765-120.36-48.299-184.06-0.97592-6.3238-1.9519-12.648-2.9574-19.163-8.2587-69.846-5.3186-143.63 1.7797-213.44 8.3774-69.961 25.647-136.38 49.475-202.61 26.6-70.8 61.972-139.13 103.73-202.14 2.1629-4.062 4.3258-8.1241 6.5542-12.309-3.5545-14.232-3.5545-14.232-10.231-25.578h-5.1155zm1534.7 0v15.347c3.3762-3.3763 6.7524-6.7525 10.231-10.231-3.3763-1.6881-6.7525-3.3762-10.231-5.1155zm-1550 5.1155 5.1155 10.231zm1504 0 5.1155 10.231zm117.66 5.1155 5.1155 10.231zm-46.04 15.346 5.1155 10.231zm-1683 10.231v15.346c3.3762-3.3763 6.7524-6.7525 10.231-10.231-3.3762-1.6881-6.7525-3.3762-10.231-5.1155zm-10.231 10.231 5.1155 10.231zm1882.5 15.346v15.346c5.0644-3.3762 10.129-6.7524 15.347-10.231-5.0644-1.6881-10.129-3.3762-15.347-5.1155zm-15.346 15.346v15.346c3.3762-3.3762 6.7525-6.7524 10.231-10.231-3.3762-1.6882-6.7524-3.3763-10.231-5.1156zm40.924 5.1156v10.231l-10.231 5.1155c5.0643 1.6882 10.129 3.3763 15.346 5.1156 1.6882-3.3763 3.3763-6.7525 5.1156-10.231-3.3763-3.3762-6.7525-6.7524-10.231-10.231zm-2082 25.578v20.462c3.3762-1.6881 6.7525-3.3762 10.231-5.1155-1.6881-5.0644-3.3763-10.129-5.1156-15.346h-5.1155zm61.386 0v10.231c3.3762-1.6881 6.7524-3.3763 10.231-5.1155-3.3762-1.6881-6.7524-3.3763-10.231-5.1155zm2041.1 5.1155c-5.0644 7.5965-5.0644 7.5965-10.231 15.346 4.0092 1.4771 8.0185 2.9542 12.149 4.4761 4.4313 1.8991 8.8626 3.7982 13.428 5.7549 3.3763 3.3762 6.7525 6.7525 10.231 10.231 5.6699-9.6333 5.6699-9.6333 10.231-20.462-1.6881-3.3762-3.3762-6.7525-5.1155-10.231-15.497-3.3646-15.497-3.3646-30.693-5.1155zm46.04 15.346v15.346c7.5965 5.0644 7.5965 5.0644 15.347 10.231v-15.347c-5.0644-3.3762-10.129-6.7525-15.347-10.231zm30.693 15.346 5.1155 15.346zm-2266.2 15.346c-1.6881 3.3763-3.3762 6.7525-5.1155 10.231 3.3762 3.3763 6.7525 6.7525 10.231 10.231v-10.231c3.3762-1.6881 6.7524-3.3762 10.231-5.1155-5.0644-1.6881-10.129-3.3762-15.347-5.1155zm-10.231 20.462v15.346c3.3762-3.3762 6.7524-6.7525 10.231-10.231-3.3762-1.6881-6.7524-3.3763-10.231-5.1155zm-15.347 5.1155v15.346c3.3762-3.3762 6.7524-6.7525 10.231-10.231-3.3762-1.6881-6.7524-3.3763-10.231-5.1155zm2327.6 5.1155 5.1155 10.231zm-10.231 5.1155v10.231c3.3762-1.6881 6.7525-3.3762 10.231-5.1155-3.3762-1.6882-6.7524-3.3762-10.231-5.1155zm-2332.7 10.231 5.1155 10.231zm2414.5 15.346 5.1155 10.231zm-2460.6 10.231v15.347c5.0644-3.3763 10.129-6.7525 15.347-10.231-5.0644-1.6881-10.129-3.3762-15.347-5.1155zm-10.231 20.462v15.346c3.3762-3.3762 6.7524-6.7525 10.231-10.231-3.3762-1.688-6.7524-3.3762-10.231-5.1154zm-25.578 10.231v15.346c3.3763-3.3763 6.7525-6.7525 10.231-10.231-3.3762-1.6882-6.7525-3.3762-10.231-5.1155zm15.347 0 5.1156 10.231zm2481 5.1155 5.1155 10.231zm10.231 0 5.1156 10.231zm-2516.8 10.231 5.1155 10.231zm2552.6 5.1155 5.1155 10.231zm15.346 5.1155 10.231 10.231v-10.231h-10.231zm-10.231 10.231 5.1155 15.346zm-20.462 5.1155v15.346h10.231c-1.6882-5.0643-3.3762-10.129-5.1155-15.346h-5.1156zm66.502 0v15.346c3.3763-3.3762 6.7525-6.7524 10.231-10.231-3.3763-1.6881-6.7525-3.3762-10.231-5.1155zm-2639.6 10.231 5.1155 10.231zm2598.7 5.1155 5.1155 10.231zm-2603.8 5.1155c-1.6881 3.3763-3.3762 6.7525-5.1155 10.231 3.3763 3.3762 6.7525 6.7524 10.231 10.231 1.6881-5.0644 3.3762-10.129 5.1155-15.347-3.3762-1.6881-6.7525-3.3762-10.231-5.1155zm-51.155 51.155v15.346c3.3762-3.3762 6.7524-6.7524 10.231-10.231-3.3762-1.6881-6.7524-3.3762-10.231-5.1155zm-15.347 10.231v15.346c3.3762-3.3762 6.7524-6.7524 10.231-10.231-3.3762-1.6881-6.7524-3.3762-10.231-5.1155zm2788 40.924c3.3763 3.3762 6.7525 6.7524 10.231 10.231v-10.231h-10.231zm25.578 0c1.6881 6.7524 3.3762 13.505 5.1155 20.462l10.231-10.231c-1.6881-3.3763-3.3763-6.7525-5.1155-10.231h-10.231zm-2936.3 61.386 5.1155 10.231zm3007.9 20.462 5.1155 10.231zm-5.1155 10.231 5.1155 10.231zm15.346 0c-3.4765 12.263-3.4765 12.263-5.1155 25.578 3.3762 3.3763 6.7524 6.7525 10.231 10.231 1.6881-10.129 3.3762-20.257 5.1155-30.693-3.3762-1.6881-6.7525-3.3762-10.231-5.1155zm15.346 15.346 5.1155 10.231zm5.1155 10.231 5.1155 10.231zm-3089.8 5.1155 5.1155 10.231zm3079.5 0v15.347c3.3762-3.3763 6.7525-6.7525 10.231-10.231-3.3763-1.6881-6.7525-3.3762-10.231-5.1155zm0 20.462c1.6881 3.3762 3.3762 6.7524 5.1155 10.231 1.6881-3.3762 3.3762-6.7524 5.1155-10.231h-10.231zm35.808 15.346 5.1155 10.231zm-3161.4 10.231 5.1155 10.231zm3176.7 5.1155v15.347c3.3762-3.3762 6.7524-6.7524 10.231-10.231-3.3763-1.6881-6.7525-3.3762-10.231-5.1155zm-3156.3 5.1155c-1.6881 3.3762-3.3762 6.7525-5.1155 10.231 3.3762 3.3763 6.7525 6.7525 10.231 10.231 1.6881-5.0643 3.3762-10.129 5.1155-15.347-3.3762-1.6881-6.7525-3.3762-10.231-5.1155zm-30.693 5.1155 5.1155 10.231zm3222.8 10.231 5.1155 10.231zm-3227.9 15.347v15.346c5.0644-3.3762 10.129-6.7524 15.347-10.231-5.0644-1.6881-10.129-3.3762-15.347-5.1154zm3217.7 15.346 5.1155 15.347zm15.346 30.693 5.1155 10.231zm-3243.2 56.27v15.347c3.3762 1.6881 6.7525 3.3762 10.231 5.1155 10.829-4.5612 10.829-4.5612 20.462-10.231-10.129-3.3762-20.257-6.7525-30.693-10.231zm3238.1 15.347c-1.6881 5.0643-3.3762 10.129-5.1155 15.346h15.346c-3.3762-5.0644-6.7525-10.129-10.231-15.346zm-1718.8 690.59 5.1156 10.231zm61.386 10.231 5.1155 10.231zm102.31 76.733v10.231c3.3762-1.688 6.7524-3.3762 10.231-5.1154-3.3762-1.6881-6.7524-3.3763-10.231-5.1155z" image-rendering="optimizeQuality" stroke-width="5.1155" style="mix-blend-mode:normal"/><path transform="matrix(.013422 0 0 .013422 3.302 3.091)" d="m1683.2 465.76c20.606 3.0654 40.246 8.0446 59.73 15.423 33.111 13.737 65.634 30.622 94.967 51.294 27.214 21.218 52.632 44.717 75.113 70.922 15.77 20.276 29.225 41.459 41.181 64.19 8.1402 19.022 14.902 38.141 20.712 57.993 1.0757 3.5566 2.1513 7.1132 3.2595 10.778 4.9633 17.724 8.8049 34.818 10.425 53.181 0.5515 15.036 0.681 29.992 0.5552 45.037-0.034 5.306-0.069 10.612-0.1041 16.079-0.4854 27.143-1.6419 52.815-8.1806 79.195-3.1047 9.325-6.4765 18.565-10.097 27.702-0.9999 2.6572-1.9998 5.3144-3.0299 8.0522-10.658 28.066-22.907 54.773-39.408 79.911-18.165 26.359-38.054 51.365-61.121 73.588-24.553 21.136-51.859 37.444-80.258 52.815-24.155 12.553-48.163 24.022-74.514 31.23-39.065 7.6368-78.713 11.023-118.49 11.375-24.313-1.1226-47.031-5.0535-70.55-11.278-29.983-9.4032-59.052-19.968-86.99-34.433-29.001-17.372-55.511-38.082-79.999-61.359-21.89-23.036-40.364-48.103-56.699-75.339-13.929-23.998-27.04-48.59-36.104-74.878-7.893-25.631-14.252-51.789-17.747-78.389-2.3323-37.098-3.0964-75.189 2.9773-111.94 5.4267-27.629 13.042-54.231 23.43-80.42 3.5144-7.7317 7.1369-15.415 10.874-23.042 1.8262-3.8126 3.6524-7.6252 5.5339-11.553 10.589-20.769 22.707-39.294 37.184-57.572 17.479-20.431 35.229-38.903 56.699-55.145 25.693-18.274 52.314-35.841 81.407-48.22 14.17-5.2919 28.316-9.7832 42.864-13.916 6.2955-1.9704 6.2955-1.9704 12.718-3.9806 52.293-14.005 110.16-13.04 163.67-7.2997zm-233.45 105.21c-13.222 5.0677-13.222 5.0677-24.239 11.877-12.421 9.1841-23.15 19.179-33.754 30.388-6.7476 8.1664-12.279 16.134-17.492 25.356-4.4423 10.096-7.7332 19.804-10.485 30.485-2.7203 15.324-3.6374 29.934-3.0906 45.485 1.0931 10.485 2.7094 20.032 5.5501 30.178 3.8511 9.9665 8.3568 18.675 13.851 27.848 7.1393 10.086 14.414 18.832 23.171 27.556 13.12 10 26.465 17.916 41.424 24.854 11.377 4.2358 20.976 6.2909 33.139 8.2847 13.625 2.0793 13.625 2.0793 28.997 0 18.636-4.0365 36.193-9.3567 53.851-16.569 10.815-6.0582 19.849-12.427 29.256-20.485 8.691-9.2167 15.497-18.517 22.265-29.223 6.5836-11.404 11.085-22.105 15.307-34.611 3.6979-15.541 5.1179-29.427 5.4045-45.388-0.069-16.271-0.069-16.271-1.8123-31.844-2.9869-12.008-2.9869-12.008-8.0258-22.524-6.2107-10.514-12.884-19.119-21.052-28.204-9.2411-8.8202-18.46-16.497-28.916-23.835-12.1-6.679-24.194-12.14-37.281-16.569-9.8139-2.7302-18.551-4.3532-28.738-5.4369-19.926 0.42853-38.506 6.2193-57.33 12.379z" stroke-width="4.1424"/></g></svg>
